<?xml version="1.0" encoding="utf-8" standalone="no"?>
<!DOCTYPE svg PUBLIC "-//W3C//DTD SVG 1.1//EN"
  "http://www.w3.org/Graphics/SVG/1.1/DTD/svg11.dtd">
<svg height="345.6pt" version="1.1" viewBox="0 0 460.8 345.6" width="460.8pt" xmlns="http://www.w3.org/2000/svg" xmlns:xlink="http://www.w3.org/1999/xlink">
 <metadata>
  <rdf:RDF xmlns:cc="http://creativecommons.org/ns#" xmlns:dc="http://purl.org/dc/elements/1.1/" xmlns:rdf="http://www.w3.org/1999/02/22-rdf-syntax-ns#">
   <cc:Work>
    <dc:type rdf:resource="http://purl.org/dc/dcmitype/StillImage"/>
    <dc:date>2022-12-09T14:58:52.951264</dc:date>
    <dc:format>image/svg+xml</dc:format>
    <dc:creator>
     <cc:Agent>
      <dc:title>Matplotlib v3.4.3, https://matplotlib.org/</dc:title>
     </cc:Agent>
    </dc:creator>
   </cc:Work>
  </rdf:RDF>
 </metadata>
 <defs>
  <style type="text/css">*{stroke-linecap:butt;stroke-linejoin:round;}</style>
 </defs>
 <g id="figure_1">
  <g id="patch_1">
   <path d="M 0 345.6 
L 460.8 345.6 
L 460.8 0 
L 0 0 
z
" style="fill:#ffffff;"/>
  </g>
  <g id="axes_1">
   <g id="patch_2">
    <path d="M 57.6 307.584 
L 414.72 307.584 
L 414.72 41.472 
L 57.6 41.472 
z
" style="fill:#ffffff;"/>
   </g>
   <g id="patch_3">
    <path clip-path="url(#p823e9cfb25)" d="M 79.92 217.778165 
L 94.8 217.778165 
L 94.8 265.767753 
L 79.92 265.767753 
z
" style="fill:#e15759;"/>
   </g>
   <g id="patch_4">
    <path clip-path="url(#p823e9cfb25)" d="M 169.2 217.778165 
L 184.08 217.778165 
L 184.08 89.225751 
L 169.2 89.225751 
z
" style="fill:#e15759;"/>
   </g>
   <g id="patch_5">
    <path clip-path="url(#p823e9cfb25)" d="M 258.48 217.778165 
L 273.36 217.778165 
L 273.36 252.083178 
L 258.48 252.083178 
z
" style="fill:#e15759;"/>
   </g>
   <g id="patch_6">
    <path clip-path="url(#p823e9cfb25)" d="M 347.76 217.778165 
L 362.64 217.778165 
L 362.64 153.592987 
L 347.76 153.592987 
z
" style="fill:#e15759;"/>
   </g>
   <g id="patch_7">
    <path clip-path="url(#p823e9cfb25)" d="M 94.8 217.778165 
L 109.68 217.778165 
L 109.68 237.849731 
L 94.8 237.849731 
z
" style="fill:#76b7b2;"/>
   </g>
   <g id="patch_8">
    <path clip-path="url(#p823e9cfb25)" d="M 184.08 217.778165 
L 198.96 217.778165 
L 198.96 177.249221 
L 184.08 177.249221 
z
" style="fill:#76b7b2;"/>
   </g>
   <g id="patch_9">
    <path clip-path="url(#p823e9cfb25)" d="M 273.36 217.778165 
L 288.24 217.778165 
L 288.24 274.18887 
L 273.36 274.18887 
z
" style="fill:#76b7b2;"/>
   </g>
   <g id="patch_10">
    <path clip-path="url(#p823e9cfb25)" d="M 362.64 217.778165 
L 377.52 217.778165 
L 377.52 162.507299 
L 362.64 162.507299 
z
" style="fill:#76b7b2;"/>
   </g>
   <g id="patch_11">
    <path clip-path="url(#p823e9cfb25)" d="M 109.68 217.778165 
L 124.56 217.778165 
L 124.56 227.688341 
L 109.68 227.688341 
z
" style="fill:#4e79a7;"/>
   </g>
   <g id="patch_12">
    <path clip-path="url(#p823e9cfb25)" d="M 198.96 217.778165 
L 213.84 217.778165 
L 213.84 252.134805 
L 198.96 252.134805 
z
" style="fill:#4e79a7;"/>
   </g>
   <g id="patch_13">
    <path clip-path="url(#p823e9cfb25)" d="M 288.24 217.778165 
L 303.12 217.778165 
L 303.12 278.032357 
L 288.24 278.032357 
z
" style="fill:#4e79a7;"/>
   </g>
   <g id="patch_14">
    <path clip-path="url(#p823e9cfb25)" d="M 377.52 217.778165 
L 392.4 217.778165 
L 392.4 161.90839 
L 377.52 161.90839 
z
" style="fill:#4e79a7;"/>
   </g>
   <g id="matplotlib.axis_1">
    <g id="xtick_1">
     <g id="line2d_1">
      <defs>
       <path d="M 0 0 
L 0 3.5 
" id="mb7c030a694" style="stroke:#000000;stroke-width:0.8;"/>
      </defs>
      <g>
       <use style="stroke:#000000;stroke-width:0.8;" x="102.24" xlink:href="#mb7c030a694" y="307.584"/>
      </g>
     </g>
     <g id="text_1">
      <!-- 0 -->
      <g transform="translate(104.999375 320.9465)rotate(-90)scale(0.1 -0.1)">
       <defs>
        <path d="M 2034 4250 
Q 1547 4250 1301 3770 
Q 1056 3291 1056 2328 
Q 1056 1369 1301 889 
Q 1547 409 2034 409 
Q 2525 409 2770 889 
Q 3016 1369 3016 2328 
Q 3016 3291 2770 3770 
Q 2525 4250 2034 4250 
z
M 2034 4750 
Q 2819 4750 3233 4129 
Q 3647 3509 3647 2328 
Q 3647 1150 3233 529 
Q 2819 -91 2034 -91 
Q 1250 -91 836 529 
Q 422 1150 422 2328 
Q 422 3509 836 4129 
Q 1250 4750 2034 4750 
z
" id="DejaVuSans-30" transform="scale(0.015625)"/>
       </defs>
       <use xlink:href="#DejaVuSans-30"/>
      </g>
     </g>
    </g>
    <g id="xtick_2">
     <g id="line2d_2">
      <g>
       <use style="stroke:#000000;stroke-width:0.8;" x="191.52" xlink:href="#mb7c030a694" y="307.584"/>
      </g>
     </g>
     <g id="text_2">
      <!-- 1 -->
      <g transform="translate(194.279375 320.9465)rotate(-90)scale(0.1 -0.1)">
       <defs>
        <path d="M 794 531 
L 1825 531 
L 1825 4091 
L 703 3866 
L 703 4441 
L 1819 4666 
L 2450 4666 
L 2450 531 
L 3481 531 
L 3481 0 
L 794 0 
L 794 531 
z
" id="DejaVuSans-31" transform="scale(0.015625)"/>
       </defs>
       <use xlink:href="#DejaVuSans-31"/>
      </g>
     </g>
    </g>
    <g id="xtick_3">
     <g id="line2d_3">
      <g>
       <use style="stroke:#000000;stroke-width:0.8;" x="280.8" xlink:href="#mb7c030a694" y="307.584"/>
      </g>
     </g>
     <g id="text_3">
      <!-- 2 -->
      <g transform="translate(283.559375 320.9465)rotate(-90)scale(0.1 -0.1)">
       <defs>
        <path d="M 1228 531 
L 3431 531 
L 3431 0 
L 469 0 
L 469 531 
Q 828 903 1448 1529 
Q 2069 2156 2228 2338 
Q 2531 2678 2651 2914 
Q 2772 3150 2772 3378 
Q 2772 3750 2511 3984 
Q 2250 4219 1831 4219 
Q 1534 4219 1204 4116 
Q 875 4013 500 3803 
L 500 4441 
Q 881 4594 1212 4672 
Q 1544 4750 1819 4750 
Q 2544 4750 2975 4387 
Q 3406 4025 3406 3419 
Q 3406 3131 3298 2873 
Q 3191 2616 2906 2266 
Q 2828 2175 2409 1742 
Q 1991 1309 1228 531 
z
" id="DejaVuSans-32" transform="scale(0.015625)"/>
       </defs>
       <use xlink:href="#DejaVuSans-32"/>
      </g>
     </g>
    </g>
    <g id="xtick_4">
     <g id="line2d_4">
      <g>
       <use style="stroke:#000000;stroke-width:0.8;" x="370.08" xlink:href="#mb7c030a694" y="307.584"/>
      </g>
     </g>
     <g id="text_4">
      <!-- 3 -->
      <g transform="translate(372.839375 320.9465)rotate(-90)scale(0.1 -0.1)">
       <defs>
        <path d="M 2597 2516 
Q 3050 2419 3304 2112 
Q 3559 1806 3559 1356 
Q 3559 666 3084 287 
Q 2609 -91 1734 -91 
Q 1441 -91 1130 -33 
Q 819 25 488 141 
L 488 750 
Q 750 597 1062 519 
Q 1375 441 1716 441 
Q 2309 441 2620 675 
Q 2931 909 2931 1356 
Q 2931 1769 2642 2001 
Q 2353 2234 1838 2234 
L 1294 2234 
L 1294 2753 
L 1863 2753 
Q 2328 2753 2575 2939 
Q 2822 3125 2822 3475 
Q 2822 3834 2567 4026 
Q 2313 4219 1838 4219 
Q 1578 4219 1281 4162 
Q 984 4106 628 3988 
L 628 4550 
Q 988 4650 1302 4700 
Q 1616 4750 1894 4750 
Q 2613 4750 3031 4423 
Q 3450 4097 3450 3541 
Q 3450 3153 3228 2886 
Q 3006 2619 2597 2516 
z
" id="DejaVuSans-33" transform="scale(0.015625)"/>
       </defs>
       <use xlink:href="#DejaVuSans-33"/>
      </g>
     </g>
    </g>
   </g>
   <g id="matplotlib.axis_2">
    <g id="ytick_1">
     <g id="line2d_5">
      <defs>
       <path d="M 0 0 
L -3.5 0 
" id="m297316c174" style="stroke:#000000;stroke-width:0.8;"/>
      </defs>
      <g>
       <use style="stroke:#000000;stroke-width:0.8;" x="57.6" xlink:href="#m297316c174" y="270.932395"/>
      </g>
     </g>
     <g id="text_5">
      <!-- −0.2 -->
      <g transform="translate(26.317187 274.731614)scale(0.1 -0.1)">
       <defs>
        <path d="M 678 2272 
L 4684 2272 
L 4684 1741 
L 678 1741 
L 678 2272 
z
" id="DejaVuSans-2212" transform="scale(0.015625)"/>
        <path d="M 684 794 
L 1344 794 
L 1344 0 
L 684 0 
L 684 794 
z
" id="DejaVuSans-2e" transform="scale(0.015625)"/>
       </defs>
       <use xlink:href="#DejaVuSans-2212"/>
       <use x="83.789062" xlink:href="#DejaVuSans-30"/>
       <use x="147.412109" xlink:href="#DejaVuSans-2e"/>
       <use x="179.199219" xlink:href="#DejaVuSans-32"/>
      </g>
     </g>
    </g>
    <g id="ytick_2">
     <g id="line2d_6">
      <g>
       <use style="stroke:#000000;stroke-width:0.8;" x="57.6" xlink:href="#m297316c174" y="217.778165"/>
      </g>
     </g>
     <g id="text_6">
      <!-- 0.0 -->
      <g transform="translate(34.696875 221.577383)scale(0.1 -0.1)">
       <use xlink:href="#DejaVuSans-30"/>
       <use x="63.623047" xlink:href="#DejaVuSans-2e"/>
       <use x="95.410156" xlink:href="#DejaVuSans-30"/>
      </g>
     </g>
    </g>
    <g id="ytick_3">
     <g id="line2d_7">
      <g>
       <use style="stroke:#000000;stroke-width:0.8;" x="57.6" xlink:href="#m297316c174" y="164.623935"/>
      </g>
     </g>
     <g id="text_7">
      <!-- 0.2 -->
      <g transform="translate(34.696875 168.423153)scale(0.1 -0.1)">
       <use xlink:href="#DejaVuSans-30"/>
       <use x="63.623047" xlink:href="#DejaVuSans-2e"/>
       <use x="95.410156" xlink:href="#DejaVuSans-32"/>
      </g>
     </g>
    </g>
    <g id="ytick_4">
     <g id="line2d_8">
      <g>
       <use style="stroke:#000000;stroke-width:0.8;" x="57.6" xlink:href="#m297316c174" y="111.469705"/>
      </g>
     </g>
     <g id="text_8">
      <!-- 0.4 -->
      <g transform="translate(34.696875 115.268923)scale(0.1 -0.1)">
       <defs>
        <path d="M 2419 4116 
L 825 1625 
L 2419 1625 
L 2419 4116 
z
M 2253 4666 
L 3047 4666 
L 3047 1625 
L 3713 1625 
L 3713 1100 
L 3047 1100 
L 3047 0 
L 2419 0 
L 2419 1100 
L 313 1100 
L 313 1709 
L 2253 4666 
z
" id="DejaVuSans-34" transform="scale(0.015625)"/>
       </defs>
       <use xlink:href="#DejaVuSans-30"/>
       <use x="63.623047" xlink:href="#DejaVuSans-2e"/>
       <use x="95.410156" xlink:href="#DejaVuSans-34"/>
      </g>
     </g>
    </g>
    <g id="ytick_5">
     <g id="line2d_9">
      <g>
       <use style="stroke:#000000;stroke-width:0.8;" x="57.6" xlink:href="#m297316c174" y="58.315475"/>
      </g>
     </g>
     <g id="text_9">
      <!-- 0.6 -->
      <g transform="translate(34.696875 62.114693)scale(0.1 -0.1)">
       <defs>
        <path d="M 2113 2584 
Q 1688 2584 1439 2293 
Q 1191 2003 1191 1497 
Q 1191 994 1439 701 
Q 1688 409 2113 409 
Q 2538 409 2786 701 
Q 3034 994 3034 1497 
Q 3034 2003 2786 2293 
Q 2538 2584 2113 2584 
z
M 3366 4563 
L 3366 3988 
Q 3128 4100 2886 4159 
Q 2644 4219 2406 4219 
Q 1781 4219 1451 3797 
Q 1122 3375 1075 2522 
Q 1259 2794 1537 2939 
Q 1816 3084 2150 3084 
Q 2853 3084 3261 2657 
Q 3669 2231 3669 1497 
Q 3669 778 3244 343 
Q 2819 -91 2113 -91 
Q 1303 -91 875 529 
Q 447 1150 447 2328 
Q 447 3434 972 4092 
Q 1497 4750 2381 4750 
Q 2619 4750 2861 4703 
Q 3103 4656 3366 4563 
z
" id="DejaVuSans-36" transform="scale(0.015625)"/>
       </defs>
       <use xlink:href="#DejaVuSans-30"/>
       <use x="63.623047" xlink:href="#DejaVuSans-2e"/>
       <use x="95.410156" xlink:href="#DejaVuSans-36"/>
      </g>
     </g>
    </g>
   </g>
   <g id="LineCollection_1">
    <path clip-path="url(#p823e9cfb25)" d="M 87.36 279.893785 
L 87.36 251.641721 
" style="fill:none;stroke:#000000;stroke-width:1.5;"/>
    <path clip-path="url(#p823e9cfb25)" d="M 176.64 124.883502 
L 176.64 53.568 
" style="fill:none;stroke:#000000;stroke-width:1.5;"/>
    <path clip-path="url(#p823e9cfb25)" d="M 265.92 268.341269 
L 265.92 235.825087 
" style="fill:none;stroke:#000000;stroke-width:1.5;"/>
    <path clip-path="url(#p823e9cfb25)" d="M 355.2 169.21268 
L 355.2 137.973293 
" style="fill:none;stroke:#000000;stroke-width:1.5;"/>
   </g>
   <g id="LineCollection_2">
    <path clip-path="url(#p823e9cfb25)" d="M 102.24 251.753029 
L 102.24 223.946433 
" style="fill:none;stroke:#000000;stroke-width:1.5;"/>
    <path clip-path="url(#p823e9cfb25)" d="M 191.52 206.833179 
L 191.52 147.665264 
" style="fill:none;stroke:#000000;stroke-width:1.5;"/>
    <path clip-path="url(#p823e9cfb25)" d="M 280.8 290.807619 
L 280.8 257.570122 
" style="fill:none;stroke:#000000;stroke-width:1.5;"/>
    <path clip-path="url(#p823e9cfb25)" d="M 370.08 177.040621 
L 370.08 147.973977 
" style="fill:none;stroke:#000000;stroke-width:1.5;"/>
   </g>
   <g id="LineCollection_3">
    <path clip-path="url(#p823e9cfb25)" d="M 117.12 241.439587 
L 117.12 213.937096 
" style="fill:none;stroke:#000000;stroke-width:1.5;"/>
    <path clip-path="url(#p823e9cfb25)" d="M 206.4 281.036768 
L 206.4 223.232843 
" style="fill:none;stroke:#000000;stroke-width:1.5;"/>
    <path clip-path="url(#p823e9cfb25)" d="M 295.68 295.488 
L 295.68 260.576714 
" style="fill:none;stroke:#000000;stroke-width:1.5;"/>
    <path clip-path="url(#p823e9cfb25)" d="M 384.96 175.76569 
L 384.96 148.05109 
" style="fill:none;stroke:#000000;stroke-width:1.5;"/>
   </g>
   <g id="line2d_10">
    <defs>
     <path d="M 4 0 
L -4 -0 
" id="m386d1189c1" style="stroke:#000000;"/>
    </defs>
    <g clip-path="url(#p823e9cfb25)">
     <use style="stroke:#000000;" x="87.36" xlink:href="#m386d1189c1" y="279.893785"/>
     <use style="stroke:#000000;" x="176.64" xlink:href="#m386d1189c1" y="124.883502"/>
     <use style="stroke:#000000;" x="265.92" xlink:href="#m386d1189c1" y="268.341269"/>
     <use style="stroke:#000000;" x="355.2" xlink:href="#m386d1189c1" y="169.21268"/>
    </g>
   </g>
   <g id="line2d_11">
    <g clip-path="url(#p823e9cfb25)">
     <use style="stroke:#000000;" x="87.36" xlink:href="#m386d1189c1" y="251.641721"/>
     <use style="stroke:#000000;" x="176.64" xlink:href="#m386d1189c1" y="53.568"/>
     <use style="stroke:#000000;" x="265.92" xlink:href="#m386d1189c1" y="235.825087"/>
     <use style="stroke:#000000;" x="355.2" xlink:href="#m386d1189c1" y="137.973293"/>
    </g>
   </g>
   <g id="line2d_12">
    <g clip-path="url(#p823e9cfb25)">
     <use style="stroke:#000000;" x="102.24" xlink:href="#m386d1189c1" y="251.753029"/>
     <use style="stroke:#000000;" x="191.52" xlink:href="#m386d1189c1" y="206.833179"/>
     <use style="stroke:#000000;" x="280.8" xlink:href="#m386d1189c1" y="290.807619"/>
     <use style="stroke:#000000;" x="370.08" xlink:href="#m386d1189c1" y="177.040621"/>
    </g>
   </g>
   <g id="line2d_13">
    <g clip-path="url(#p823e9cfb25)">
     <use style="stroke:#000000;" x="102.24" xlink:href="#m386d1189c1" y="223.946433"/>
     <use style="stroke:#000000;" x="191.52" xlink:href="#m386d1189c1" y="147.665264"/>
     <use style="stroke:#000000;" x="280.8" xlink:href="#m386d1189c1" y="257.570122"/>
     <use style="stroke:#000000;" x="370.08" xlink:href="#m386d1189c1" y="147.973977"/>
    </g>
   </g>
   <g id="line2d_14">
    <g clip-path="url(#p823e9cfb25)">
     <use style="stroke:#000000;" x="117.12" xlink:href="#m386d1189c1" y="241.439587"/>
     <use style="stroke:#000000;" x="206.4" xlink:href="#m386d1189c1" y="281.036768"/>
     <use style="stroke:#000000;" x="295.68" xlink:href="#m386d1189c1" y="295.488"/>
     <use style="stroke:#000000;" x="384.96" xlink:href="#m386d1189c1" y="175.76569"/>
    </g>
   </g>
   <g id="line2d_15">
    <g clip-path="url(#p823e9cfb25)">
     <use style="stroke:#000000;" x="117.12" xlink:href="#m386d1189c1" y="213.937096"/>
     <use style="stroke:#000000;" x="206.4" xlink:href="#m386d1189c1" y="223.232843"/>
     <use style="stroke:#000000;" x="295.68" xlink:href="#m386d1189c1" y="260.576714"/>
     <use style="stroke:#000000;" x="384.96" xlink:href="#m386d1189c1" y="148.05109"/>
    </g>
   </g>
   <g id="line2d_16">
    <path clip-path="url(#p823e9cfb25)" d="M 57.6 217.778165 
L 414.72 217.778165 
" style="fill:none;stroke:#000000;stroke-linecap:square;"/>
   </g>
   <g id="patch_15">
    <path d="M 57.6 307.584 
L 57.6 41.472 
" style="fill:none;stroke:#000000;stroke-linecap:square;stroke-linejoin:miter;stroke-width:0.8;"/>
   </g>
   <g id="patch_16">
    <path d="M 414.72 307.584 
L 414.72 41.472 
" style="fill:none;stroke:#000000;stroke-linecap:square;stroke-linejoin:miter;stroke-width:0.8;"/>
   </g>
   <g id="patch_17">
    <path d="M 57.6 307.584 
L 414.72 307.584 
" style="fill:none;stroke:#000000;stroke-linecap:square;stroke-linejoin:miter;stroke-width:0.8;"/>
   </g>
   <g id="patch_18">
    <path d="M 57.6 41.472 
L 414.72 41.472 
" style="fill:none;stroke:#000000;stroke-linecap:square;stroke-linejoin:miter;stroke-width:0.8;"/>
   </g>
  </g>
 </g>
 <defs>
  <clipPath id="p823e9cfb25">
   <rect height="266.112" width="357.12" x="57.6" y="41.472"/>
  </clipPath>
 </defs>
</svg>
