<?xml version="1.0" encoding="utf-8" standalone="no"?>
<!DOCTYPE svg PUBLIC "-//W3C//DTD SVG 1.1//EN"
  "http://www.w3.org/Graphics/SVG/1.1/DTD/svg11.dtd">
<svg height="345.6pt" version="1.1" viewBox="0 0 460.8 345.6" width="460.8pt" xmlns="http://www.w3.org/2000/svg" xmlns:xlink="http://www.w3.org/1999/xlink">
 <metadata>
  <rdf:RDF xmlns:cc="http://creativecommons.org/ns#" xmlns:dc="http://purl.org/dc/elements/1.1/" xmlns:rdf="http://www.w3.org/1999/02/22-rdf-syntax-ns#">
   <cc:Work>
    <dc:type rdf:resource="http://purl.org/dc/dcmitype/StillImage"/>
    <dc:date>2022-12-09T15:15:46.891512</dc:date>
    <dc:format>image/svg+xml</dc:format>
    <dc:creator>
     <cc:Agent>
      <dc:title>Matplotlib v3.4.3, https://matplotlib.org/</dc:title>
     </cc:Agent>
    </dc:creator>
   </cc:Work>
  </rdf:RDF>
 </metadata>
 <defs>
  <style type="text/css">*{stroke-linecap:butt;stroke-linejoin:round;}</style>
 </defs>
 <g id="figure_1">
  <g id="patch_1">
   <path d="M 0 345.6 
L 460.8 345.6 
L 460.8 0 
L 0 0 
z
" style="fill:#ffffff;"/>
  </g>
  <g id="axes_1">
   <g id="patch_2">
    <path d="M 57.6 307.584 
L 414.72 307.584 
L 414.72 41.472 
L 57.6 41.472 
z
" style="fill:#ffffff;"/>
   </g>
   <g id="patch_3">
    <path clip-path="url(#pefe13e67b8)" d="M 79.92 175.17342 
L 94.8 175.17342 
L 94.8 260.920289 
L 79.92 260.920289 
z
" style="fill:#e15759;"/>
   </g>
   <g id="patch_4">
    <path clip-path="url(#pefe13e67b8)" d="M 169.2 175.17342 
L 184.08 175.17342 
L 184.08 110.37597 
L 169.2 110.37597 
z
" style="fill:#e15759;"/>
   </g>
   <g id="patch_5">
    <path clip-path="url(#pefe13e67b8)" d="M 258.48 175.17342 
L 273.36 175.17342 
L 273.36 191.818355 
L 258.48 191.818355 
z
" style="fill:#e15759;"/>
   </g>
   <g id="patch_6">
    <path clip-path="url(#pefe13e67b8)" d="M 347.76 175.17342 
L 362.64 175.17342 
L 362.64 79.120993 
L 347.76 79.120993 
z
" style="fill:#e15759;"/>
   </g>
   <g id="patch_7">
    <path clip-path="url(#pefe13e67b8)" d="M 94.8 175.17342 
L 109.68 175.17342 
L 109.68 277.873696 
L 94.8 277.873696 
z
" style="fill:#76b7b2;"/>
   </g>
   <g id="patch_8">
    <path clip-path="url(#pefe13e67b8)" d="M 184.08 175.17342 
L 198.96 175.17342 
L 198.96 150.23962 
L 184.08 150.23962 
z
" style="fill:#76b7b2;"/>
   </g>
   <g id="patch_9">
    <path clip-path="url(#pefe13e67b8)" d="M 273.36 175.17342 
L 288.24 175.17342 
L 288.24 137.771798 
L 273.36 137.771798 
z
" style="fill:#76b7b2;"/>
   </g>
   <g id="patch_10">
    <path clip-path="url(#pefe13e67b8)" d="M 362.64 175.17342 
L 377.52 175.17342 
L 377.52 73.321907 
L 362.64 73.321907 
z
" style="fill:#76b7b2;"/>
   </g>
   <g id="patch_11">
    <path clip-path="url(#pefe13e67b8)" d="M 109.68 175.17342 
L 124.56 175.17342 
L 124.56 213.589426 
L 109.68 213.589426 
z
" style="fill:#4e79a7;"/>
   </g>
   <g id="patch_12">
    <path clip-path="url(#pefe13e67b8)" d="M 198.96 175.17342 
L 213.84 175.17342 
L 213.84 134.482997 
L 198.96 134.482997 
z
" style="fill:#4e79a7;"/>
   </g>
   <g id="patch_13">
    <path clip-path="url(#pefe13e67b8)" d="M 288.24 175.17342 
L 303.12 175.17342 
L 303.12 261.184194 
L 288.24 261.184194 
z
" style="fill:#4e79a7;"/>
   </g>
   <g id="patch_14">
    <path clip-path="url(#pefe13e67b8)" d="M 377.52 175.17342 
L 392.4 175.17342 
L 392.4 114.69092 
L 377.52 114.69092 
z
" style="fill:#4e79a7;"/>
   </g>
   <g id="matplotlib.axis_1">
    <g id="xtick_1">
     <g id="line2d_1">
      <defs>
       <path d="M 0 0 
L 0 3.5 
" id="m508a7b45be" style="stroke:#000000;stroke-width:0.8;"/>
      </defs>
      <g>
       <use style="stroke:#000000;stroke-width:0.8;" x="102.24" xlink:href="#m508a7b45be" y="307.584"/>
      </g>
     </g>
     <g id="text_1">
      <!-- 0 -->
      <g transform="translate(104.999375 320.9465)rotate(-90)scale(0.1 -0.1)">
       <defs>
        <path d="M 2034 4250 
Q 1547 4250 1301 3770 
Q 1056 3291 1056 2328 
Q 1056 1369 1301 889 
Q 1547 409 2034 409 
Q 2525 409 2770 889 
Q 3016 1369 3016 2328 
Q 3016 3291 2770 3770 
Q 2525 4250 2034 4250 
z
M 2034 4750 
Q 2819 4750 3233 4129 
Q 3647 3509 3647 2328 
Q 3647 1150 3233 529 
Q 2819 -91 2034 -91 
Q 1250 -91 836 529 
Q 422 1150 422 2328 
Q 422 3509 836 4129 
Q 1250 4750 2034 4750 
z
" id="DejaVuSans-30" transform="scale(0.015625)"/>
       </defs>
       <use xlink:href="#DejaVuSans-30"/>
      </g>
     </g>
    </g>
    <g id="xtick_2">
     <g id="line2d_2">
      <g>
       <use style="stroke:#000000;stroke-width:0.8;" x="191.52" xlink:href="#m508a7b45be" y="307.584"/>
      </g>
     </g>
     <g id="text_2">
      <!-- 1 -->
      <g transform="translate(194.279375 320.9465)rotate(-90)scale(0.1 -0.1)">
       <defs>
        <path d="M 794 531 
L 1825 531 
L 1825 4091 
L 703 3866 
L 703 4441 
L 1819 4666 
L 2450 4666 
L 2450 531 
L 3481 531 
L 3481 0 
L 794 0 
L 794 531 
z
" id="DejaVuSans-31" transform="scale(0.015625)"/>
       </defs>
       <use xlink:href="#DejaVuSans-31"/>
      </g>
     </g>
    </g>
    <g id="xtick_3">
     <g id="line2d_3">
      <g>
       <use style="stroke:#000000;stroke-width:0.8;" x="280.8" xlink:href="#m508a7b45be" y="307.584"/>
      </g>
     </g>
     <g id="text_3">
      <!-- 2 -->
      <g transform="translate(283.559375 320.9465)rotate(-90)scale(0.1 -0.1)">
       <defs>
        <path d="M 1228 531 
L 3431 531 
L 3431 0 
L 469 0 
L 469 531 
Q 828 903 1448 1529 
Q 2069 2156 2228 2338 
Q 2531 2678 2651 2914 
Q 2772 3150 2772 3378 
Q 2772 3750 2511 3984 
Q 2250 4219 1831 4219 
Q 1534 4219 1204 4116 
Q 875 4013 500 3803 
L 500 4441 
Q 881 4594 1212 4672 
Q 1544 4750 1819 4750 
Q 2544 4750 2975 4387 
Q 3406 4025 3406 3419 
Q 3406 3131 3298 2873 
Q 3191 2616 2906 2266 
Q 2828 2175 2409 1742 
Q 1991 1309 1228 531 
z
" id="DejaVuSans-32" transform="scale(0.015625)"/>
       </defs>
       <use xlink:href="#DejaVuSans-32"/>
      </g>
     </g>
    </g>
    <g id="xtick_4">
     <g id="line2d_4">
      <g>
       <use style="stroke:#000000;stroke-width:0.8;" x="370.08" xlink:href="#m508a7b45be" y="307.584"/>
      </g>
     </g>
     <g id="text_4">
      <!-- 3 -->
      <g transform="translate(372.839375 320.9465)rotate(-90)scale(0.1 -0.1)">
       <defs>
        <path d="M 2597 2516 
Q 3050 2419 3304 2112 
Q 3559 1806 3559 1356 
Q 3559 666 3084 287 
Q 2609 -91 1734 -91 
Q 1441 -91 1130 -33 
Q 819 25 488 141 
L 488 750 
Q 750 597 1062 519 
Q 1375 441 1716 441 
Q 2309 441 2620 675 
Q 2931 909 2931 1356 
Q 2931 1769 2642 2001 
Q 2353 2234 1838 2234 
L 1294 2234 
L 1294 2753 
L 1863 2753 
Q 2328 2753 2575 2939 
Q 2822 3125 2822 3475 
Q 2822 3834 2567 4026 
Q 2313 4219 1838 4219 
Q 1578 4219 1281 4162 
Q 984 4106 628 3988 
L 628 4550 
Q 988 4650 1302 4700 
Q 1616 4750 1894 4750 
Q 2613 4750 3031 4423 
Q 3450 4097 3450 3541 
Q 3450 3153 3228 2886 
Q 3006 2619 2597 2516 
z
" id="DejaVuSans-33" transform="scale(0.015625)"/>
       </defs>
       <use xlink:href="#DejaVuSans-33"/>
      </g>
     </g>
    </g>
   </g>
   <g id="matplotlib.axis_2">
    <g id="ytick_1">
     <g id="line2d_5">
      <defs>
       <path d="M 0 0 
L -3.5 0 
" id="m2871d11c5f" style="stroke:#000000;stroke-width:0.8;"/>
      </defs>
      <g>
       <use style="stroke:#000000;stroke-width:0.8;" x="57.6" xlink:href="#m2871d11c5f" y="306.815581"/>
      </g>
     </g>
     <g id="text_5">
      <!-- −0.3 -->
      <g transform="translate(26.317187 310.6148)scale(0.1 -0.1)">
       <defs>
        <path d="M 678 2272 
L 4684 2272 
L 4684 1741 
L 678 1741 
L 678 2272 
z
" id="DejaVuSans-2212" transform="scale(0.015625)"/>
        <path d="M 684 794 
L 1344 794 
L 1344 0 
L 684 0 
L 684 794 
z
" id="DejaVuSans-2e" transform="scale(0.015625)"/>
       </defs>
       <use xlink:href="#DejaVuSans-2212"/>
       <use x="83.789062" xlink:href="#DejaVuSans-30"/>
       <use x="147.412109" xlink:href="#DejaVuSans-2e"/>
       <use x="179.199219" xlink:href="#DejaVuSans-33"/>
      </g>
     </g>
    </g>
    <g id="ytick_2">
     <g id="line2d_6">
      <g>
       <use style="stroke:#000000;stroke-width:0.8;" x="57.6" xlink:href="#m2871d11c5f" y="262.934861"/>
      </g>
     </g>
     <g id="text_6">
      <!-- −0.2 -->
      <g transform="translate(26.317187 266.73408)scale(0.1 -0.1)">
       <use xlink:href="#DejaVuSans-2212"/>
       <use x="83.789062" xlink:href="#DejaVuSans-30"/>
       <use x="147.412109" xlink:href="#DejaVuSans-2e"/>
       <use x="179.199219" xlink:href="#DejaVuSans-32"/>
      </g>
     </g>
    </g>
    <g id="ytick_3">
     <g id="line2d_7">
      <g>
       <use style="stroke:#000000;stroke-width:0.8;" x="57.6" xlink:href="#m2871d11c5f" y="219.05414"/>
      </g>
     </g>
     <g id="text_7">
      <!-- −0.1 -->
      <g transform="translate(26.317187 222.853359)scale(0.1 -0.1)">
       <use xlink:href="#DejaVuSans-2212"/>
       <use x="83.789062" xlink:href="#DejaVuSans-30"/>
       <use x="147.412109" xlink:href="#DejaVuSans-2e"/>
       <use x="179.199219" xlink:href="#DejaVuSans-31"/>
      </g>
     </g>
    </g>
    <g id="ytick_4">
     <g id="line2d_8">
      <g>
       <use style="stroke:#000000;stroke-width:0.8;" x="57.6" xlink:href="#m2871d11c5f" y="175.17342"/>
      </g>
     </g>
     <g id="text_8">
      <!-- 0.0 -->
      <g transform="translate(34.696875 178.972639)scale(0.1 -0.1)">
       <use xlink:href="#DejaVuSans-30"/>
       <use x="63.623047" xlink:href="#DejaVuSans-2e"/>
       <use x="95.410156" xlink:href="#DejaVuSans-30"/>
      </g>
     </g>
    </g>
    <g id="ytick_5">
     <g id="line2d_9">
      <g>
       <use style="stroke:#000000;stroke-width:0.8;" x="57.6" xlink:href="#m2871d11c5f" y="131.2927"/>
      </g>
     </g>
     <g id="text_9">
      <!-- 0.1 -->
      <g transform="translate(34.696875 135.091918)scale(0.1 -0.1)">
       <use xlink:href="#DejaVuSans-30"/>
       <use x="63.623047" xlink:href="#DejaVuSans-2e"/>
       <use x="95.410156" xlink:href="#DejaVuSans-31"/>
      </g>
     </g>
    </g>
    <g id="ytick_6">
     <g id="line2d_10">
      <g>
       <use style="stroke:#000000;stroke-width:0.8;" x="57.6" xlink:href="#m2871d11c5f" y="87.411979"/>
      </g>
     </g>
     <g id="text_10">
      <!-- 0.2 -->
      <g transform="translate(34.696875 91.211198)scale(0.1 -0.1)">
       <use xlink:href="#DejaVuSans-30"/>
       <use x="63.623047" xlink:href="#DejaVuSans-2e"/>
       <use x="95.410156" xlink:href="#DejaVuSans-32"/>
      </g>
     </g>
    </g>
    <g id="ytick_7">
     <g id="line2d_11">
      <g>
       <use style="stroke:#000000;stroke-width:0.8;" x="57.6" xlink:href="#m2871d11c5f" y="43.531259"/>
      </g>
     </g>
     <g id="text_11">
      <!-- 0.3 -->
      <g transform="translate(34.696875 47.330478)scale(0.1 -0.1)">
       <use xlink:href="#DejaVuSans-30"/>
       <use x="63.623047" xlink:href="#DejaVuSans-2e"/>
       <use x="95.410156" xlink:href="#DejaVuSans-33"/>
      </g>
     </g>
    </g>
   </g>
   <g id="LineCollection_1">
    <path clip-path="url(#pefe13e67b8)" d="M 87.36 279.232374 
L 87.36 242.608204 
" style="fill:none;stroke:#000000;stroke-width:1.5;"/>
    <path clip-path="url(#pefe13e67b8)" d="M 176.64 142.373026 
L 176.64 78.378915 
" style="fill:none;stroke:#000000;stroke-width:1.5;"/>
    <path clip-path="url(#pefe13e67b8)" d="M 265.92 222.815348 
L 265.92 160.821362 
" style="fill:none;stroke:#000000;stroke-width:1.5;"/>
    <path clip-path="url(#pefe13e67b8)" d="M 355.2 100.571464 
L 355.2 57.670521 
" style="fill:none;stroke:#000000;stroke-width:1.5;"/>
   </g>
   <g id="LineCollection_2">
    <path clip-path="url(#pefe13e67b8)" d="M 102.24 295.488 
L 102.24 260.259391 
" style="fill:none;stroke:#000000;stroke-width:1.5;"/>
    <path clip-path="url(#pefe13e67b8)" d="M 191.52 180.09974 
L 191.52 120.379499 
" style="fill:none;stroke:#000000;stroke-width:1.5;"/>
    <path clip-path="url(#pefe13e67b8)" d="M 280.8 167.730812 
L 280.8 107.812784 
" style="fill:none;stroke:#000000;stroke-width:1.5;"/>
    <path clip-path="url(#pefe13e67b8)" d="M 370.08 93.075813 
L 370.08 53.568 
" style="fill:none;stroke:#000000;stroke-width:1.5;"/>
   </g>
   <g id="LineCollection_3">
    <path clip-path="url(#pefe13e67b8)" d="M 117.12 230.778534 
L 117.12 196.400317 
" style="fill:none;stroke:#000000;stroke-width:1.5;"/>
    <path clip-path="url(#pefe13e67b8)" d="M 206.4 162.905401 
L 206.4 106.060593 
" style="fill:none;stroke:#000000;stroke-width:1.5;"/>
    <path clip-path="url(#pefe13e67b8)" d="M 295.68 291.225775 
L 295.68 231.142613 
" style="fill:none;stroke:#000000;stroke-width:1.5;"/>
    <path clip-path="url(#pefe13e67b8)" d="M 384.96 133.293864 
L 384.96 96.087977 
" style="fill:none;stroke:#000000;stroke-width:1.5;"/>
   </g>
   <g id="line2d_12">
    <defs>
     <path d="M 4 0 
L -4 -0 
" id="m76ce644926" style="stroke:#000000;"/>
    </defs>
    <g clip-path="url(#pefe13e67b8)">
     <use style="stroke:#000000;" x="87.36" xlink:href="#m76ce644926" y="279.232374"/>
     <use style="stroke:#000000;" x="176.64" xlink:href="#m76ce644926" y="142.373026"/>
     <use style="stroke:#000000;" x="265.92" xlink:href="#m76ce644926" y="222.815348"/>
     <use style="stroke:#000000;" x="355.2" xlink:href="#m76ce644926" y="100.571464"/>
    </g>
   </g>
   <g id="line2d_13">
    <g clip-path="url(#pefe13e67b8)">
     <use style="stroke:#000000;" x="87.36" xlink:href="#m76ce644926" y="242.608204"/>
     <use style="stroke:#000000;" x="176.64" xlink:href="#m76ce644926" y="78.378915"/>
     <use style="stroke:#000000;" x="265.92" xlink:href="#m76ce644926" y="160.821362"/>
     <use style="stroke:#000000;" x="355.2" xlink:href="#m76ce644926" y="57.670521"/>
    </g>
   </g>
   <g id="line2d_14">
    <g clip-path="url(#pefe13e67b8)">
     <use style="stroke:#000000;" x="102.24" xlink:href="#m76ce644926" y="295.488"/>
     <use style="stroke:#000000;" x="191.52" xlink:href="#m76ce644926" y="180.09974"/>
     <use style="stroke:#000000;" x="280.8" xlink:href="#m76ce644926" y="167.730812"/>
     <use style="stroke:#000000;" x="370.08" xlink:href="#m76ce644926" y="93.075813"/>
    </g>
   </g>
   <g id="line2d_15">
    <g clip-path="url(#pefe13e67b8)">
     <use style="stroke:#000000;" x="102.24" xlink:href="#m76ce644926" y="260.259391"/>
     <use style="stroke:#000000;" x="191.52" xlink:href="#m76ce644926" y="120.379499"/>
     <use style="stroke:#000000;" x="280.8" xlink:href="#m76ce644926" y="107.812784"/>
     <use style="stroke:#000000;" x="370.08" xlink:href="#m76ce644926" y="53.568"/>
    </g>
   </g>
   <g id="line2d_16">
    <g clip-path="url(#pefe13e67b8)">
     <use style="stroke:#000000;" x="117.12" xlink:href="#m76ce644926" y="230.778534"/>
     <use style="stroke:#000000;" x="206.4" xlink:href="#m76ce644926" y="162.905401"/>
     <use style="stroke:#000000;" x="295.68" xlink:href="#m76ce644926" y="291.225775"/>
     <use style="stroke:#000000;" x="384.96" xlink:href="#m76ce644926" y="133.293864"/>
    </g>
   </g>
   <g id="line2d_17">
    <g clip-path="url(#pefe13e67b8)">
     <use style="stroke:#000000;" x="117.12" xlink:href="#m76ce644926" y="196.400317"/>
     <use style="stroke:#000000;" x="206.4" xlink:href="#m76ce644926" y="106.060593"/>
     <use style="stroke:#000000;" x="295.68" xlink:href="#m76ce644926" y="231.142613"/>
     <use style="stroke:#000000;" x="384.96" xlink:href="#m76ce644926" y="96.087977"/>
    </g>
   </g>
   <g id="line2d_18">
    <path clip-path="url(#pefe13e67b8)" d="M 57.6 175.17342 
L 414.72 175.17342 
" style="fill:none;stroke:#000000;stroke-linecap:square;"/>
   </g>
   <g id="patch_15">
    <path d="M 57.6 307.584 
L 57.6 41.472 
" style="fill:none;stroke:#000000;stroke-linecap:square;stroke-linejoin:miter;stroke-width:0.8;"/>
   </g>
   <g id="patch_16">
    <path d="M 414.72 307.584 
L 414.72 41.472 
" style="fill:none;stroke:#000000;stroke-linecap:square;stroke-linejoin:miter;stroke-width:0.8;"/>
   </g>
   <g id="patch_17">
    <path d="M 57.6 307.584 
L 414.72 307.584 
" style="fill:none;stroke:#000000;stroke-linecap:square;stroke-linejoin:miter;stroke-width:0.8;"/>
   </g>
   <g id="patch_18">
    <path d="M 57.6 41.472 
L 414.72 41.472 
" style="fill:none;stroke:#000000;stroke-linecap:square;stroke-linejoin:miter;stroke-width:0.8;"/>
   </g>
  </g>
 </g>
 <defs>
  <clipPath id="pefe13e67b8">
   <rect height="266.112" width="357.12" x="57.6" y="41.472"/>
  </clipPath>
 </defs>
</svg>
