<?xml version="1.0" encoding="utf-8" standalone="no"?>
<!DOCTYPE svg PUBLIC "-//W3C//DTD SVG 1.1//EN"
  "http://www.w3.org/Graphics/SVG/1.1/DTD/svg11.dtd">
<svg height="345.6pt" version="1.1" viewBox="0 0 460.8 345.6" width="460.8pt" xmlns="http://www.w3.org/2000/svg" xmlns:xlink="http://www.w3.org/1999/xlink">
 <metadata>
  <rdf:RDF xmlns:cc="http://creativecommons.org/ns#" xmlns:dc="http://purl.org/dc/elements/1.1/" xmlns:rdf="http://www.w3.org/1999/02/22-rdf-syntax-ns#">
   <cc:Work>
    <dc:type rdf:resource="http://purl.org/dc/dcmitype/StillImage"/>
    <dc:date>2022-12-09T14:58:53.111965</dc:date>
    <dc:format>image/svg+xml</dc:format>
    <dc:creator>
     <cc:Agent>
      <dc:title>Matplotlib v3.4.3, https://matplotlib.org/</dc:title>
     </cc:Agent>
    </dc:creator>
   </cc:Work>
  </rdf:RDF>
 </metadata>
 <defs>
  <style type="text/css">*{stroke-linecap:butt;stroke-linejoin:round;}</style>
 </defs>
 <g id="figure_1">
  <g id="patch_1">
   <path d="M 0 345.6 
L 460.8 345.6 
L 460.8 0 
L 0 0 
z
" style="fill:#ffffff;"/>
  </g>
  <g id="axes_1">
   <g id="patch_2">
    <path d="M 57.6 307.584 
L 414.72 307.584 
L 414.72 41.472 
L 57.6 41.472 
z
" style="fill:#ffffff;"/>
   </g>
   <g id="patch_3">
    <path clip-path="url(#p018ede0b05)" d="M 79.92 190.735062 
L 94.8 190.735062 
L 94.8 234.406914 
L 79.92 234.406914 
z
" style="fill:#e15759;"/>
   </g>
   <g id="patch_4">
    <path clip-path="url(#p018ede0b05)" d="M 169.2 190.735062 
L 184.08 190.735062 
L 184.08 184.39403 
L 169.2 184.39403 
z
" style="fill:#e15759;"/>
   </g>
   <g id="patch_5">
    <path clip-path="url(#p018ede0b05)" d="M 258.48 190.735062 
L 273.36 190.735062 
L 273.36 164.821144 
L 258.48 164.821144 
z
" style="fill:#e15759;"/>
   </g>
   <g id="patch_6">
    <path clip-path="url(#p018ede0b05)" d="M 347.76 190.735062 
L 362.64 190.735062 
L 362.64 158.889426 
L 347.76 158.889426 
z
" style="fill:#e15759;"/>
   </g>
   <g id="patch_7">
    <path clip-path="url(#p018ede0b05)" d="M 94.8 190.735062 
L 109.68 190.735062 
L 109.68 221.049421 
L 94.8 221.049421 
z
" style="fill:#76b7b2;"/>
   </g>
   <g id="patch_8">
    <path clip-path="url(#p018ede0b05)" d="M 184.08 190.735062 
L 198.96 190.735062 
L 198.96 115.902527 
L 184.08 115.902527 
z
" style="fill:#76b7b2;"/>
   </g>
   <g id="patch_9">
    <path clip-path="url(#p018ede0b05)" d="M 273.36 190.735062 
L 288.24 190.735062 
L 288.24 263.06611 
L 273.36 263.06611 
z
" style="fill:#76b7b2;"/>
   </g>
   <g id="patch_10">
    <path clip-path="url(#p018ede0b05)" d="M 362.64 190.735062 
L 377.52 190.735062 
L 377.52 107.655732 
L 362.64 107.655732 
z
" style="fill:#76b7b2;"/>
   </g>
   <g id="patch_11">
    <path clip-path="url(#p018ede0b05)" d="M 109.68 190.735062 
L 124.56 190.735062 
L 124.56 201.660452 
L 109.68 201.660452 
z
" style="fill:#4e79a7;"/>
   </g>
   <g id="patch_12">
    <path clip-path="url(#p018ede0b05)" d="M 198.96 190.735062 
L 213.84 190.735062 
L 213.84 230.777711 
L 198.96 230.777711 
z
" style="fill:#4e79a7;"/>
   </g>
   <g id="patch_13">
    <path clip-path="url(#p018ede0b05)" d="M 288.24 190.735062 
L 303.12 190.735062 
L 303.12 174.829112 
L 288.24 174.829112 
z
" style="fill:#4e79a7;"/>
   </g>
   <g id="patch_14">
    <path clip-path="url(#p018ede0b05)" d="M 377.52 190.735062 
L 392.4 190.735062 
L 392.4 181.210966 
L 377.52 181.210966 
z
" style="fill:#4e79a7;"/>
   </g>
   <g id="matplotlib.axis_1">
    <g id="xtick_1">
     <g id="line2d_1">
      <defs>
       <path d="M 0 0 
L 0 3.5 
" id="m0a1adb3188" style="stroke:#000000;stroke-width:0.8;"/>
      </defs>
      <g>
       <use style="stroke:#000000;stroke-width:0.8;" x="102.24" xlink:href="#m0a1adb3188" y="307.584"/>
      </g>
     </g>
     <g id="text_1">
      <!-- 0 -->
      <g transform="translate(104.999375 320.9465)rotate(-90)scale(0.1 -0.1)">
       <defs>
        <path d="M 2034 4250 
Q 1547 4250 1301 3770 
Q 1056 3291 1056 2328 
Q 1056 1369 1301 889 
Q 1547 409 2034 409 
Q 2525 409 2770 889 
Q 3016 1369 3016 2328 
Q 3016 3291 2770 3770 
Q 2525 4250 2034 4250 
z
M 2034 4750 
Q 2819 4750 3233 4129 
Q 3647 3509 3647 2328 
Q 3647 1150 3233 529 
Q 2819 -91 2034 -91 
Q 1250 -91 836 529 
Q 422 1150 422 2328 
Q 422 3509 836 4129 
Q 1250 4750 2034 4750 
z
" id="DejaVuSans-30" transform="scale(0.015625)"/>
       </defs>
       <use xlink:href="#DejaVuSans-30"/>
      </g>
     </g>
    </g>
    <g id="xtick_2">
     <g id="line2d_2">
      <g>
       <use style="stroke:#000000;stroke-width:0.8;" x="191.52" xlink:href="#m0a1adb3188" y="307.584"/>
      </g>
     </g>
     <g id="text_2">
      <!-- 1 -->
      <g transform="translate(194.279375 320.9465)rotate(-90)scale(0.1 -0.1)">
       <defs>
        <path d="M 794 531 
L 1825 531 
L 1825 4091 
L 703 3866 
L 703 4441 
L 1819 4666 
L 2450 4666 
L 2450 531 
L 3481 531 
L 3481 0 
L 794 0 
L 794 531 
z
" id="DejaVuSans-31" transform="scale(0.015625)"/>
       </defs>
       <use xlink:href="#DejaVuSans-31"/>
      </g>
     </g>
    </g>
    <g id="xtick_3">
     <g id="line2d_3">
      <g>
       <use style="stroke:#000000;stroke-width:0.8;" x="280.8" xlink:href="#m0a1adb3188" y="307.584"/>
      </g>
     </g>
     <g id="text_3">
      <!-- 2 -->
      <g transform="translate(283.559375 320.9465)rotate(-90)scale(0.1 -0.1)">
       <defs>
        <path d="M 1228 531 
L 3431 531 
L 3431 0 
L 469 0 
L 469 531 
Q 828 903 1448 1529 
Q 2069 2156 2228 2338 
Q 2531 2678 2651 2914 
Q 2772 3150 2772 3378 
Q 2772 3750 2511 3984 
Q 2250 4219 1831 4219 
Q 1534 4219 1204 4116 
Q 875 4013 500 3803 
L 500 4441 
Q 881 4594 1212 4672 
Q 1544 4750 1819 4750 
Q 2544 4750 2975 4387 
Q 3406 4025 3406 3419 
Q 3406 3131 3298 2873 
Q 3191 2616 2906 2266 
Q 2828 2175 2409 1742 
Q 1991 1309 1228 531 
z
" id="DejaVuSans-32" transform="scale(0.015625)"/>
       </defs>
       <use xlink:href="#DejaVuSans-32"/>
      </g>
     </g>
    </g>
    <g id="xtick_4">
     <g id="line2d_4">
      <g>
       <use style="stroke:#000000;stroke-width:0.8;" x="370.08" xlink:href="#m0a1adb3188" y="307.584"/>
      </g>
     </g>
     <g id="text_4">
      <!-- 3 -->
      <g transform="translate(372.839375 320.9465)rotate(-90)scale(0.1 -0.1)">
       <defs>
        <path d="M 2597 2516 
Q 3050 2419 3304 2112 
Q 3559 1806 3559 1356 
Q 3559 666 3084 287 
Q 2609 -91 1734 -91 
Q 1441 -91 1130 -33 
Q 819 25 488 141 
L 488 750 
Q 750 597 1062 519 
Q 1375 441 1716 441 
Q 2309 441 2620 675 
Q 2931 909 2931 1356 
Q 2931 1769 2642 2001 
Q 2353 2234 1838 2234 
L 1294 2234 
L 1294 2753 
L 1863 2753 
Q 2328 2753 2575 2939 
Q 2822 3125 2822 3475 
Q 2822 3834 2567 4026 
Q 2313 4219 1838 4219 
Q 1578 4219 1281 4162 
Q 984 4106 628 3988 
L 628 4550 
Q 988 4650 1302 4700 
Q 1616 4750 1894 4750 
Q 2613 4750 3031 4423 
Q 3450 4097 3450 3541 
Q 3450 3153 3228 2886 
Q 3006 2619 2597 2516 
z
" id="DejaVuSans-33" transform="scale(0.015625)"/>
       </defs>
       <use xlink:href="#DejaVuSans-33"/>
      </g>
     </g>
    </g>
   </g>
   <g id="matplotlib.axis_2">
    <g id="ytick_1">
     <g id="line2d_5">
      <defs>
       <path d="M 0 0 
L -3.5 0 
" id="md4ec63976c" style="stroke:#000000;stroke-width:0.8;"/>
      </defs>
      <g>
       <use style="stroke:#000000;stroke-width:0.8;" x="57.6" xlink:href="#md4ec63976c" y="294.806968"/>
      </g>
     </g>
     <g id="text_5">
      <!-- −0.6 -->
      <g transform="translate(26.317187 298.606186)scale(0.1 -0.1)">
       <defs>
        <path d="M 678 2272 
L 4684 2272 
L 4684 1741 
L 678 1741 
L 678 2272 
z
" id="DejaVuSans-2212" transform="scale(0.015625)"/>
        <path d="M 684 794 
L 1344 794 
L 1344 0 
L 684 0 
L 684 794 
z
" id="DejaVuSans-2e" transform="scale(0.015625)"/>
        <path d="M 2113 2584 
Q 1688 2584 1439 2293 
Q 1191 2003 1191 1497 
Q 1191 994 1439 701 
Q 1688 409 2113 409 
Q 2538 409 2786 701 
Q 3034 994 3034 1497 
Q 3034 2003 2786 2293 
Q 2538 2584 2113 2584 
z
M 3366 4563 
L 3366 3988 
Q 3128 4100 2886 4159 
Q 2644 4219 2406 4219 
Q 1781 4219 1451 3797 
Q 1122 3375 1075 2522 
Q 1259 2794 1537 2939 
Q 1816 3084 2150 3084 
Q 2853 3084 3261 2657 
Q 3669 2231 3669 1497 
Q 3669 778 3244 343 
Q 2819 -91 2113 -91 
Q 1303 -91 875 529 
Q 447 1150 447 2328 
Q 447 3434 972 4092 
Q 1497 4750 2381 4750 
Q 2619 4750 2861 4703 
Q 3103 4656 3366 4563 
z
" id="DejaVuSans-36" transform="scale(0.015625)"/>
       </defs>
       <use xlink:href="#DejaVuSans-2212"/>
       <use x="83.789062" xlink:href="#DejaVuSans-30"/>
       <use x="147.412109" xlink:href="#DejaVuSans-2e"/>
       <use x="179.199219" xlink:href="#DejaVuSans-36"/>
      </g>
     </g>
    </g>
    <g id="ytick_2">
     <g id="line2d_6">
      <g>
       <use style="stroke:#000000;stroke-width:0.8;" x="57.6" xlink:href="#md4ec63976c" y="260.116332"/>
      </g>
     </g>
     <g id="text_6">
      <!-- −0.4 -->
      <g transform="translate(26.317187 263.915551)scale(0.1 -0.1)">
       <defs>
        <path d="M 2419 4116 
L 825 1625 
L 2419 1625 
L 2419 4116 
z
M 2253 4666 
L 3047 4666 
L 3047 1625 
L 3713 1625 
L 3713 1100 
L 3047 1100 
L 3047 0 
L 2419 0 
L 2419 1100 
L 313 1100 
L 313 1709 
L 2253 4666 
z
" id="DejaVuSans-34" transform="scale(0.015625)"/>
       </defs>
       <use xlink:href="#DejaVuSans-2212"/>
       <use x="83.789062" xlink:href="#DejaVuSans-30"/>
       <use x="147.412109" xlink:href="#DejaVuSans-2e"/>
       <use x="179.199219" xlink:href="#DejaVuSans-34"/>
      </g>
     </g>
    </g>
    <g id="ytick_3">
     <g id="line2d_7">
      <g>
       <use style="stroke:#000000;stroke-width:0.8;" x="57.6" xlink:href="#md4ec63976c" y="225.425697"/>
      </g>
     </g>
     <g id="text_7">
      <!-- −0.2 -->
      <g transform="translate(26.317187 229.224916)scale(0.1 -0.1)">
       <use xlink:href="#DejaVuSans-2212"/>
       <use x="83.789062" xlink:href="#DejaVuSans-30"/>
       <use x="147.412109" xlink:href="#DejaVuSans-2e"/>
       <use x="179.199219" xlink:href="#DejaVuSans-32"/>
      </g>
     </g>
    </g>
    <g id="ytick_4">
     <g id="line2d_8">
      <g>
       <use style="stroke:#000000;stroke-width:0.8;" x="57.6" xlink:href="#md4ec63976c" y="190.735062"/>
      </g>
     </g>
     <g id="text_8">
      <!-- 0.0 -->
      <g transform="translate(34.696875 194.53428)scale(0.1 -0.1)">
       <use xlink:href="#DejaVuSans-30"/>
       <use x="63.623047" xlink:href="#DejaVuSans-2e"/>
       <use x="95.410156" xlink:href="#DejaVuSans-30"/>
      </g>
     </g>
    </g>
    <g id="ytick_5">
     <g id="line2d_9">
      <g>
       <use style="stroke:#000000;stroke-width:0.8;" x="57.6" xlink:href="#md4ec63976c" y="156.044426"/>
      </g>
     </g>
     <g id="text_9">
      <!-- 0.2 -->
      <g transform="translate(34.696875 159.843645)scale(0.1 -0.1)">
       <use xlink:href="#DejaVuSans-30"/>
       <use x="63.623047" xlink:href="#DejaVuSans-2e"/>
       <use x="95.410156" xlink:href="#DejaVuSans-32"/>
      </g>
     </g>
    </g>
    <g id="ytick_6">
     <g id="line2d_10">
      <g>
       <use style="stroke:#000000;stroke-width:0.8;" x="57.6" xlink:href="#md4ec63976c" y="121.353791"/>
      </g>
     </g>
     <g id="text_10">
      <!-- 0.4 -->
      <g transform="translate(34.696875 125.15301)scale(0.1 -0.1)">
       <use xlink:href="#DejaVuSans-30"/>
       <use x="63.623047" xlink:href="#DejaVuSans-2e"/>
       <use x="95.410156" xlink:href="#DejaVuSans-34"/>
      </g>
     </g>
    </g>
    <g id="ytick_7">
     <g id="line2d_11">
      <g>
       <use style="stroke:#000000;stroke-width:0.8;" x="57.6" xlink:href="#md4ec63976c" y="86.663156"/>
      </g>
     </g>
     <g id="text_11">
      <!-- 0.6 -->
      <g transform="translate(34.696875 90.462374)scale(0.1 -0.1)">
       <use xlink:href="#DejaVuSans-30"/>
       <use x="63.623047" xlink:href="#DejaVuSans-2e"/>
       <use x="95.410156" xlink:href="#DejaVuSans-36"/>
      </g>
     </g>
    </g>
    <g id="ytick_8">
     <g id="line2d_12">
      <g>
       <use style="stroke:#000000;stroke-width:0.8;" x="57.6" xlink:href="#md4ec63976c" y="51.97252"/>
      </g>
     </g>
     <g id="text_12">
      <!-- 0.8 -->
      <g transform="translate(34.696875 55.771739)scale(0.1 -0.1)">
       <defs>
        <path d="M 2034 2216 
Q 1584 2216 1326 1975 
Q 1069 1734 1069 1313 
Q 1069 891 1326 650 
Q 1584 409 2034 409 
Q 2484 409 2743 651 
Q 3003 894 3003 1313 
Q 3003 1734 2745 1975 
Q 2488 2216 2034 2216 
z
M 1403 2484 
Q 997 2584 770 2862 
Q 544 3141 544 3541 
Q 544 4100 942 4425 
Q 1341 4750 2034 4750 
Q 2731 4750 3128 4425 
Q 3525 4100 3525 3541 
Q 3525 3141 3298 2862 
Q 3072 2584 2669 2484 
Q 3125 2378 3379 2068 
Q 3634 1759 3634 1313 
Q 3634 634 3220 271 
Q 2806 -91 2034 -91 
Q 1263 -91 848 271 
Q 434 634 434 1313 
Q 434 1759 690 2068 
Q 947 2378 1403 2484 
z
M 1172 3481 
Q 1172 3119 1398 2916 
Q 1625 2713 2034 2713 
Q 2441 2713 2670 2916 
Q 2900 3119 2900 3481 
Q 2900 3844 2670 4047 
Q 2441 4250 2034 4250 
Q 1625 4250 1398 4047 
Q 1172 3844 1172 3481 
z
" id="DejaVuSans-38" transform="scale(0.015625)"/>
       </defs>
       <use xlink:href="#DejaVuSans-30"/>
       <use x="63.623047" xlink:href="#DejaVuSans-2e"/>
       <use x="95.410156" xlink:href="#DejaVuSans-38"/>
      </g>
     </g>
    </g>
   </g>
   <g id="LineCollection_1">
    <path clip-path="url(#p018ede0b05)" d="M 87.36 263.423735 
L 87.36 205.390092 
" style="fill:none;stroke:#000000;stroke-width:1.5;"/>
    <path clip-path="url(#p018ede0b05)" d="M 176.64 255.384119 
L 176.64 113.403942 
" style="fill:none;stroke:#000000;stroke-width:1.5;"/>
    <path clip-path="url(#p018ede0b05)" d="M 265.92 197.407679 
L 265.92 132.234608 
" style="fill:none;stroke:#000000;stroke-width:1.5;"/>
    <path clip-path="url(#p018ede0b05)" d="M 355.2 193.768537 
L 355.2 124.010315 
" style="fill:none;stroke:#000000;stroke-width:1.5;"/>
   </g>
   <g id="LineCollection_2">
    <path clip-path="url(#p018ede0b05)" d="M 102.24 249.255343 
L 102.24 192.843499 
" style="fill:none;stroke:#000000;stroke-width:1.5;"/>
    <path clip-path="url(#p018ede0b05)" d="M 191.52 178.237054 
L 191.52 53.568 
" style="fill:none;stroke:#000000;stroke-width:1.5;"/>
    <path clip-path="url(#p018ede0b05)" d="M 280.8 295.488 
L 280.8 230.644221 
" style="fill:none;stroke:#000000;stroke-width:1.5;"/>
    <path clip-path="url(#p018ede0b05)" d="M 370.08 138.811735 
L 370.08 76.49973 
" style="fill:none;stroke:#000000;stroke-width:1.5;"/>
   </g>
   <g id="LineCollection_3">
    <path clip-path="url(#p018ede0b05)" d="M 117.12 230.07712 
L 117.12 173.243785 
" style="fill:none;stroke:#000000;stroke-width:1.5;"/>
    <path clip-path="url(#p018ede0b05)" d="M 206.4 289.522151 
L 206.4 172.033271 
" style="fill:none;stroke:#000000;stroke-width:1.5;"/>
    <path clip-path="url(#p018ede0b05)" d="M 295.68 208.423662 
L 295.68 141.234561 
" style="fill:none;stroke:#000000;stroke-width:1.5;"/>
    <path clip-path="url(#p018ede0b05)" d="M 384.96 210.365201 
L 384.96 152.056732 
" style="fill:none;stroke:#000000;stroke-width:1.5;"/>
   </g>
   <g id="line2d_13">
    <defs>
     <path d="M 4 0 
L -4 -0 
" id="m5b42388e78" style="stroke:#000000;"/>
    </defs>
    <g clip-path="url(#p018ede0b05)">
     <use style="stroke:#000000;" x="87.36" xlink:href="#m5b42388e78" y="263.423735"/>
     <use style="stroke:#000000;" x="176.64" xlink:href="#m5b42388e78" y="255.384119"/>
     <use style="stroke:#000000;" x="265.92" xlink:href="#m5b42388e78" y="197.407679"/>
     <use style="stroke:#000000;" x="355.2" xlink:href="#m5b42388e78" y="193.768537"/>
    </g>
   </g>
   <g id="line2d_14">
    <g clip-path="url(#p018ede0b05)">
     <use style="stroke:#000000;" x="87.36" xlink:href="#m5b42388e78" y="205.390092"/>
     <use style="stroke:#000000;" x="176.64" xlink:href="#m5b42388e78" y="113.403942"/>
     <use style="stroke:#000000;" x="265.92" xlink:href="#m5b42388e78" y="132.234608"/>
     <use style="stroke:#000000;" x="355.2" xlink:href="#m5b42388e78" y="124.010315"/>
    </g>
   </g>
   <g id="line2d_15">
    <g clip-path="url(#p018ede0b05)">
     <use style="stroke:#000000;" x="102.24" xlink:href="#m5b42388e78" y="249.255343"/>
     <use style="stroke:#000000;" x="191.52" xlink:href="#m5b42388e78" y="178.237054"/>
     <use style="stroke:#000000;" x="280.8" xlink:href="#m5b42388e78" y="295.488"/>
     <use style="stroke:#000000;" x="370.08" xlink:href="#m5b42388e78" y="138.811735"/>
    </g>
   </g>
   <g id="line2d_16">
    <g clip-path="url(#p018ede0b05)">
     <use style="stroke:#000000;" x="102.24" xlink:href="#m5b42388e78" y="192.843499"/>
     <use style="stroke:#000000;" x="191.52" xlink:href="#m5b42388e78" y="53.568"/>
     <use style="stroke:#000000;" x="280.8" xlink:href="#m5b42388e78" y="230.644221"/>
     <use style="stroke:#000000;" x="370.08" xlink:href="#m5b42388e78" y="76.49973"/>
    </g>
   </g>
   <g id="line2d_17">
    <g clip-path="url(#p018ede0b05)">
     <use style="stroke:#000000;" x="117.12" xlink:href="#m5b42388e78" y="230.07712"/>
     <use style="stroke:#000000;" x="206.4" xlink:href="#m5b42388e78" y="289.522151"/>
     <use style="stroke:#000000;" x="295.68" xlink:href="#m5b42388e78" y="208.423662"/>
     <use style="stroke:#000000;" x="384.96" xlink:href="#m5b42388e78" y="210.365201"/>
    </g>
   </g>
   <g id="line2d_18">
    <g clip-path="url(#p018ede0b05)">
     <use style="stroke:#000000;" x="117.12" xlink:href="#m5b42388e78" y="173.243785"/>
     <use style="stroke:#000000;" x="206.4" xlink:href="#m5b42388e78" y="172.033271"/>
     <use style="stroke:#000000;" x="295.68" xlink:href="#m5b42388e78" y="141.234561"/>
     <use style="stroke:#000000;" x="384.96" xlink:href="#m5b42388e78" y="152.056732"/>
    </g>
   </g>
   <g id="line2d_19">
    <path clip-path="url(#p018ede0b05)" d="M 57.6 190.735062 
L 414.72 190.735062 
" style="fill:none;stroke:#000000;stroke-linecap:square;"/>
   </g>
   <g id="patch_15">
    <path d="M 57.6 307.584 
L 57.6 41.472 
" style="fill:none;stroke:#000000;stroke-linecap:square;stroke-linejoin:miter;stroke-width:0.8;"/>
   </g>
   <g id="patch_16">
    <path d="M 414.72 307.584 
L 414.72 41.472 
" style="fill:none;stroke:#000000;stroke-linecap:square;stroke-linejoin:miter;stroke-width:0.8;"/>
   </g>
   <g id="patch_17">
    <path d="M 57.6 307.584 
L 414.72 307.584 
" style="fill:none;stroke:#000000;stroke-linecap:square;stroke-linejoin:miter;stroke-width:0.8;"/>
   </g>
   <g id="patch_18">
    <path d="M 57.6 41.472 
L 414.72 41.472 
" style="fill:none;stroke:#000000;stroke-linecap:square;stroke-linejoin:miter;stroke-width:0.8;"/>
   </g>
  </g>
 </g>
 <defs>
  <clipPath id="p018ede0b05">
   <rect height="266.112" width="357.12" x="57.6" y="41.472"/>
  </clipPath>
 </defs>
</svg>
