<?xml version="1.0" encoding="utf-8" standalone="no"?>
<!DOCTYPE svg PUBLIC "-//W3C//DTD SVG 1.1//EN"
  "http://www.w3.org/Graphics/SVG/1.1/DTD/svg11.dtd">
<svg height="345.6pt" version="1.1" viewBox="0 0 460.8 345.6" width="460.8pt" xmlns="http://www.w3.org/2000/svg" xmlns:xlink="http://www.w3.org/1999/xlink">
 <metadata>
  <rdf:RDF xmlns:cc="http://creativecommons.org/ns#" xmlns:dc="http://purl.org/dc/elements/1.1/" xmlns:rdf="http://www.w3.org/1999/02/22-rdf-syntax-ns#">
   <cc:Work>
    <dc:type rdf:resource="http://purl.org/dc/dcmitype/StillImage"/>
    <dc:date>2022-12-09T14:14:04.412736</dc:date>
    <dc:format>image/svg+xml</dc:format>
    <dc:creator>
     <cc:Agent>
      <dc:title>Matplotlib v3.4.3, https://matplotlib.org/</dc:title>
     </cc:Agent>
    </dc:creator>
   </cc:Work>
  </rdf:RDF>
 </metadata>
 <defs>
  <style type="text/css">*{stroke-linecap:butt;stroke-linejoin:round;}</style>
 </defs>
 <g id="figure_1">
  <g id="patch_1">
   <path d="M 0 345.6 
L 460.8 345.6 
L 460.8 0 
L 0 0 
z
" style="fill:#ffffff;"/>
  </g>
  <g id="axes_1">
   <g id="patch_2">
    <path d="M 57.6 307.584 
L 414.72 307.584 
L 414.72 41.472 
L 57.6 41.472 
z
" style="fill:#ffffff;"/>
   </g>
   <g id="patch_3">
    <path clip-path="url(#p06621a4a98)" d="M 79.92 214.268627 
L 94.8 214.268627 
L 94.8 202.113206 
L 79.92 202.113206 
z
" style="fill:#e15759;"/>
   </g>
   <g id="patch_4">
    <path clip-path="url(#p06621a4a98)" d="M 169.2 214.268627 
L 184.08 214.268627 
L 184.08 191.803542 
L 169.2 191.803542 
z
" style="fill:#e15759;"/>
   </g>
   <g id="patch_5">
    <path clip-path="url(#p06621a4a98)" d="M 258.48 214.268627 
L 273.36 214.268627 
L 273.36 263.456791 
L 258.48 263.456791 
z
" style="fill:#e15759;"/>
   </g>
   <g id="patch_6">
    <path clip-path="url(#p06621a4a98)" d="M 347.76 214.268627 
L 362.64 214.268627 
L 362.64 207.440004 
L 347.76 207.440004 
z
" style="fill:#e15759;"/>
   </g>
   <g id="patch_7">
    <path clip-path="url(#p06621a4a98)" d="M 94.8 214.268627 
L 109.68 214.268627 
L 109.68 216.798047 
L 94.8 216.798047 
z
" style="fill:#76b7b2;"/>
   </g>
   <g id="patch_8">
    <path clip-path="url(#p06621a4a98)" d="M 184.08 214.268627 
L 198.96 214.268627 
L 198.96 215.500968 
L 184.08 215.500968 
z
" style="fill:#76b7b2;"/>
   </g>
   <g id="patch_9">
    <path clip-path="url(#p06621a4a98)" d="M 273.36 214.268627 
L 288.24 214.268627 
L 288.24 230.75645 
L 273.36 230.75645 
z
" style="fill:#76b7b2;"/>
   </g>
   <g id="patch_10">
    <path clip-path="url(#p06621a4a98)" d="M 362.64 214.268627 
L 377.52 214.268627 
L 377.52 162.679728 
L 362.64 162.679728 
z
" style="fill:#76b7b2;"/>
   </g>
   <g id="patch_11">
    <path clip-path="url(#p06621a4a98)" d="M 109.68 214.268627 
L 124.56 214.268627 
L 124.56 278.895414 
L 109.68 278.895414 
z
" style="fill:#4e79a7;"/>
   </g>
   <g id="patch_12">
    <path clip-path="url(#p06621a4a98)" d="M 198.96 214.268627 
L 213.84 214.268627 
L 213.84 64.1634 
L 198.96 64.1634 
z
" style="fill:#4e79a7;"/>
   </g>
   <g id="patch_13">
    <path clip-path="url(#p06621a4a98)" d="M 288.24 214.268627 
L 303.12 214.268627 
L 303.12 282.313255 
L 288.24 282.313255 
z
" style="fill:#4e79a7;"/>
   </g>
   <g id="patch_14">
    <path clip-path="url(#p06621a4a98)" d="M 377.52 214.268627 
L 392.4 214.268627 
L 392.4 184.466426 
L 377.52 184.466426 
z
" style="fill:#4e79a7;"/>
   </g>
   <g id="matplotlib.axis_1">
    <g id="xtick_1">
     <g id="line2d_1">
      <defs>
       <path d="M 0 0 
L 0 3.5 
" id="m1a7449ac1f" style="stroke:#000000;stroke-width:0.8;"/>
      </defs>
      <g>
       <use style="stroke:#000000;stroke-width:0.8;" x="102.24" xlink:href="#m1a7449ac1f" y="307.584"/>
      </g>
     </g>
     <g id="text_1">
      <!-- 4 -->
      <g transform="translate(104.999375 320.9465)rotate(-90)scale(0.1 -0.1)">
       <defs>
        <path d="M 2419 4116 
L 825 1625 
L 2419 1625 
L 2419 4116 
z
M 2253 4666 
L 3047 4666 
L 3047 1625 
L 3713 1625 
L 3713 1100 
L 3047 1100 
L 3047 0 
L 2419 0 
L 2419 1100 
L 313 1100 
L 313 1709 
L 2253 4666 
z
" id="DejaVuSans-34" transform="scale(0.015625)"/>
       </defs>
       <use xlink:href="#DejaVuSans-34"/>
      </g>
     </g>
    </g>
    <g id="xtick_2">
     <g id="line2d_2">
      <g>
       <use style="stroke:#000000;stroke-width:0.8;" x="191.52" xlink:href="#m1a7449ac1f" y="307.584"/>
      </g>
     </g>
     <g id="text_2">
      <!-- 5 -->
      <g transform="translate(194.279375 320.9465)rotate(-90)scale(0.1 -0.1)">
       <defs>
        <path d="M 691 4666 
L 3169 4666 
L 3169 4134 
L 1269 4134 
L 1269 2991 
Q 1406 3038 1543 3061 
Q 1681 3084 1819 3084 
Q 2600 3084 3056 2656 
Q 3513 2228 3513 1497 
Q 3513 744 3044 326 
Q 2575 -91 1722 -91 
Q 1428 -91 1123 -41 
Q 819 9 494 109 
L 494 744 
Q 775 591 1075 516 
Q 1375 441 1709 441 
Q 2250 441 2565 725 
Q 2881 1009 2881 1497 
Q 2881 1984 2565 2268 
Q 2250 2553 1709 2553 
Q 1456 2553 1204 2497 
Q 953 2441 691 2322 
L 691 4666 
z
" id="DejaVuSans-35" transform="scale(0.015625)"/>
       </defs>
       <use xlink:href="#DejaVuSans-35"/>
      </g>
     </g>
    </g>
    <g id="xtick_3">
     <g id="line2d_3">
      <g>
       <use style="stroke:#000000;stroke-width:0.8;" x="280.8" xlink:href="#m1a7449ac1f" y="307.584"/>
      </g>
     </g>
     <g id="text_3">
      <!-- 6 -->
      <g transform="translate(283.559375 320.9465)rotate(-90)scale(0.1 -0.1)">
       <defs>
        <path d="M 2113 2584 
Q 1688 2584 1439 2293 
Q 1191 2003 1191 1497 
Q 1191 994 1439 701 
Q 1688 409 2113 409 
Q 2538 409 2786 701 
Q 3034 994 3034 1497 
Q 3034 2003 2786 2293 
Q 2538 2584 2113 2584 
z
M 3366 4563 
L 3366 3988 
Q 3128 4100 2886 4159 
Q 2644 4219 2406 4219 
Q 1781 4219 1451 3797 
Q 1122 3375 1075 2522 
Q 1259 2794 1537 2939 
Q 1816 3084 2150 3084 
Q 2853 3084 3261 2657 
Q 3669 2231 3669 1497 
Q 3669 778 3244 343 
Q 2819 -91 2113 -91 
Q 1303 -91 875 529 
Q 447 1150 447 2328 
Q 447 3434 972 4092 
Q 1497 4750 2381 4750 
Q 2619 4750 2861 4703 
Q 3103 4656 3366 4563 
z
" id="DejaVuSans-36" transform="scale(0.015625)"/>
       </defs>
       <use xlink:href="#DejaVuSans-36"/>
      </g>
     </g>
    </g>
    <g id="xtick_4">
     <g id="line2d_4">
      <g>
       <use style="stroke:#000000;stroke-width:0.8;" x="370.08" xlink:href="#m1a7449ac1f" y="307.584"/>
      </g>
     </g>
     <g id="text_4">
      <!-- 7 -->
      <g transform="translate(372.839375 320.9465)rotate(-90)scale(0.1 -0.1)">
       <defs>
        <path d="M 525 4666 
L 3525 4666 
L 3525 4397 
L 1831 0 
L 1172 0 
L 2766 4134 
L 525 4134 
L 525 4666 
z
" id="DejaVuSans-37" transform="scale(0.015625)"/>
       </defs>
       <use xlink:href="#DejaVuSans-37"/>
      </g>
     </g>
    </g>
   </g>
   <g id="matplotlib.axis_2">
    <g id="ytick_1">
     <g id="line2d_5">
      <defs>
       <path d="M 0 0 
L -3.5 0 
" id="mdce75c86a7" style="stroke:#000000;stroke-width:0.8;"/>
      </defs>
      <g>
       <use style="stroke:#000000;stroke-width:0.8;" x="57.6" xlink:href="#mdce75c86a7" y="263.984526"/>
      </g>
     </g>
     <g id="text_5">
      <!-- −0.2 -->
      <g transform="translate(26.317187 267.783745)scale(0.1 -0.1)">
       <defs>
        <path d="M 678 2272 
L 4684 2272 
L 4684 1741 
L 678 1741 
L 678 2272 
z
" id="DejaVuSans-2212" transform="scale(0.015625)"/>
        <path d="M 2034 4250 
Q 1547 4250 1301 3770 
Q 1056 3291 1056 2328 
Q 1056 1369 1301 889 
Q 1547 409 2034 409 
Q 2525 409 2770 889 
Q 3016 1369 3016 2328 
Q 3016 3291 2770 3770 
Q 2525 4250 2034 4250 
z
M 2034 4750 
Q 2819 4750 3233 4129 
Q 3647 3509 3647 2328 
Q 3647 1150 3233 529 
Q 2819 -91 2034 -91 
Q 1250 -91 836 529 
Q 422 1150 422 2328 
Q 422 3509 836 4129 
Q 1250 4750 2034 4750 
z
" id="DejaVuSans-30" transform="scale(0.015625)"/>
        <path d="M 684 794 
L 1344 794 
L 1344 0 
L 684 0 
L 684 794 
z
" id="DejaVuSans-2e" transform="scale(0.015625)"/>
        <path d="M 1228 531 
L 3431 531 
L 3431 0 
L 469 0 
L 469 531 
Q 828 903 1448 1529 
Q 2069 2156 2228 2338 
Q 2531 2678 2651 2914 
Q 2772 3150 2772 3378 
Q 2772 3750 2511 3984 
Q 2250 4219 1831 4219 
Q 1534 4219 1204 4116 
Q 875 4013 500 3803 
L 500 4441 
Q 881 4594 1212 4672 
Q 1544 4750 1819 4750 
Q 2544 4750 2975 4387 
Q 3406 4025 3406 3419 
Q 3406 3131 3298 2873 
Q 3191 2616 2906 2266 
Q 2828 2175 2409 1742 
Q 1991 1309 1228 531 
z
" id="DejaVuSans-32" transform="scale(0.015625)"/>
       </defs>
       <use xlink:href="#DejaVuSans-2212"/>
       <use x="83.789062" xlink:href="#DejaVuSans-30"/>
       <use x="147.412109" xlink:href="#DejaVuSans-2e"/>
       <use x="179.199219" xlink:href="#DejaVuSans-32"/>
      </g>
     </g>
    </g>
    <g id="ytick_2">
     <g id="line2d_6">
      <g>
       <use style="stroke:#000000;stroke-width:0.8;" x="57.6" xlink:href="#mdce75c86a7" y="214.268627"/>
      </g>
     </g>
     <g id="text_6">
      <!-- 0.0 -->
      <g transform="translate(34.696875 218.067846)scale(0.1 -0.1)">
       <use xlink:href="#DejaVuSans-30"/>
       <use x="63.623047" xlink:href="#DejaVuSans-2e"/>
       <use x="95.410156" xlink:href="#DejaVuSans-30"/>
      </g>
     </g>
    </g>
    <g id="ytick_3">
     <g id="line2d_7">
      <g>
       <use style="stroke:#000000;stroke-width:0.8;" x="57.6" xlink:href="#mdce75c86a7" y="164.552727"/>
      </g>
     </g>
     <g id="text_7">
      <!-- 0.2 -->
      <g transform="translate(34.696875 168.351946)scale(0.1 -0.1)">
       <use xlink:href="#DejaVuSans-30"/>
       <use x="63.623047" xlink:href="#DejaVuSans-2e"/>
       <use x="95.410156" xlink:href="#DejaVuSans-32"/>
      </g>
     </g>
    </g>
    <g id="ytick_4">
     <g id="line2d_8">
      <g>
       <use style="stroke:#000000;stroke-width:0.8;" x="57.6" xlink:href="#mdce75c86a7" y="114.836828"/>
      </g>
     </g>
     <g id="text_8">
      <!-- 0.4 -->
      <g transform="translate(34.696875 118.636046)scale(0.1 -0.1)">
       <use xlink:href="#DejaVuSans-30"/>
       <use x="63.623047" xlink:href="#DejaVuSans-2e"/>
       <use x="95.410156" xlink:href="#DejaVuSans-34"/>
      </g>
     </g>
    </g>
    <g id="ytick_5">
     <g id="line2d_9">
      <g>
       <use style="stroke:#000000;stroke-width:0.8;" x="57.6" xlink:href="#mdce75c86a7" y="65.120928"/>
      </g>
     </g>
     <g id="text_9">
      <!-- 0.6 -->
      <g transform="translate(34.696875 68.920147)scale(0.1 -0.1)">
       <use xlink:href="#DejaVuSans-30"/>
       <use x="63.623047" xlink:href="#DejaVuSans-2e"/>
       <use x="95.410156" xlink:href="#DejaVuSans-36"/>
      </g>
     </g>
    </g>
   </g>
   <g id="LineCollection_1">
    <path clip-path="url(#p06621a4a98)" d="M 87.36 211.507651 
L 87.36 192.718761 
" style="fill:none;stroke:#000000;stroke-width:1.5;"/>
    <path clip-path="url(#p06621a4a98)" d="M 176.64 206.223377 
L 176.64 177.383706 
" style="fill:none;stroke:#000000;stroke-width:1.5;"/>
    <path clip-path="url(#p06621a4a98)" d="M 265.92 277.241939 
L 265.92 249.671643 
" style="fill:none;stroke:#000000;stroke-width:1.5;"/>
    <path clip-path="url(#p06621a4a98)" d="M 355.2 230.272233 
L 355.2 184.607775 
" style="fill:none;stroke:#000000;stroke-width:1.5;"/>
   </g>
   <g id="LineCollection_2">
    <path clip-path="url(#p06621a4a98)" d="M 102.24 225.561111 
L 102.24 208.034984 
" style="fill:none;stroke:#000000;stroke-width:1.5;"/>
    <path clip-path="url(#p06621a4a98)" d="M 191.52 228.554886 
L 191.52 202.447051 
" style="fill:none;stroke:#000000;stroke-width:1.5;"/>
    <path clip-path="url(#p06621a4a98)" d="M 280.8 244.289589 
L 280.8 217.223311 
" style="fill:none;stroke:#000000;stroke-width:1.5;"/>
    <path clip-path="url(#p06621a4a98)" d="M 370.08 182.780934 
L 370.08 142.578521 
" style="fill:none;stroke:#000000;stroke-width:1.5;"/>
   </g>
   <g id="LineCollection_3">
    <path clip-path="url(#p06621a4a98)" d="M 117.12 286.42297 
L 117.12 271.367858 
" style="fill:none;stroke:#000000;stroke-width:1.5;"/>
    <path clip-path="url(#p06621a4a98)" d="M 206.4 74.7588 
L 206.4 53.568 
" style="fill:none;stroke:#000000;stroke-width:1.5;"/>
    <path clip-path="url(#p06621a4a98)" d="M 295.68 295.488 
L 295.68 269.138509 
" style="fill:none;stroke:#000000;stroke-width:1.5;"/>
    <path clip-path="url(#p06621a4a98)" d="M 384.96 201.105223 
L 384.96 167.827629 
" style="fill:none;stroke:#000000;stroke-width:1.5;"/>
   </g>
   <g id="line2d_10">
    <defs>
     <path d="M 4 0 
L -4 -0 
" id="m0afafb6c75" style="stroke:#000000;"/>
    </defs>
    <g clip-path="url(#p06621a4a98)">
     <use style="stroke:#000000;" x="87.36" xlink:href="#m0afafb6c75" y="211.507651"/>
     <use style="stroke:#000000;" x="176.64" xlink:href="#m0afafb6c75" y="206.223377"/>
     <use style="stroke:#000000;" x="265.92" xlink:href="#m0afafb6c75" y="277.241939"/>
     <use style="stroke:#000000;" x="355.2" xlink:href="#m0afafb6c75" y="230.272233"/>
    </g>
   </g>
   <g id="line2d_11">
    <g clip-path="url(#p06621a4a98)">
     <use style="stroke:#000000;" x="87.36" xlink:href="#m0afafb6c75" y="192.718761"/>
     <use style="stroke:#000000;" x="176.64" xlink:href="#m0afafb6c75" y="177.383706"/>
     <use style="stroke:#000000;" x="265.92" xlink:href="#m0afafb6c75" y="249.671643"/>
     <use style="stroke:#000000;" x="355.2" xlink:href="#m0afafb6c75" y="184.607775"/>
    </g>
   </g>
   <g id="line2d_12">
    <g clip-path="url(#p06621a4a98)">
     <use style="stroke:#000000;" x="102.24" xlink:href="#m0afafb6c75" y="225.561111"/>
     <use style="stroke:#000000;" x="191.52" xlink:href="#m0afafb6c75" y="228.554886"/>
     <use style="stroke:#000000;" x="280.8" xlink:href="#m0afafb6c75" y="244.289589"/>
     <use style="stroke:#000000;" x="370.08" xlink:href="#m0afafb6c75" y="182.780934"/>
    </g>
   </g>
   <g id="line2d_13">
    <g clip-path="url(#p06621a4a98)">
     <use style="stroke:#000000;" x="102.24" xlink:href="#m0afafb6c75" y="208.034984"/>
     <use style="stroke:#000000;" x="191.52" xlink:href="#m0afafb6c75" y="202.447051"/>
     <use style="stroke:#000000;" x="280.8" xlink:href="#m0afafb6c75" y="217.223311"/>
     <use style="stroke:#000000;" x="370.08" xlink:href="#m0afafb6c75" y="142.578521"/>
    </g>
   </g>
   <g id="line2d_14">
    <g clip-path="url(#p06621a4a98)">
     <use style="stroke:#000000;" x="117.12" xlink:href="#m0afafb6c75" y="286.42297"/>
     <use style="stroke:#000000;" x="206.4" xlink:href="#m0afafb6c75" y="74.7588"/>
     <use style="stroke:#000000;" x="295.68" xlink:href="#m0afafb6c75" y="295.488"/>
     <use style="stroke:#000000;" x="384.96" xlink:href="#m0afafb6c75" y="201.105223"/>
    </g>
   </g>
   <g id="line2d_15">
    <g clip-path="url(#p06621a4a98)">
     <use style="stroke:#000000;" x="117.12" xlink:href="#m0afafb6c75" y="271.367858"/>
     <use style="stroke:#000000;" x="206.4" xlink:href="#m0afafb6c75" y="53.568"/>
     <use style="stroke:#000000;" x="295.68" xlink:href="#m0afafb6c75" y="269.138509"/>
     <use style="stroke:#000000;" x="384.96" xlink:href="#m0afafb6c75" y="167.827629"/>
    </g>
   </g>
   <g id="line2d_16">
    <path clip-path="url(#p06621a4a98)" d="M 57.6 214.268627 
L 414.72 214.268627 
" style="fill:none;stroke:#000000;stroke-linecap:square;"/>
   </g>
   <g id="patch_15">
    <path d="M 57.6 307.584 
L 57.6 41.472 
" style="fill:none;stroke:#000000;stroke-linecap:square;stroke-linejoin:miter;stroke-width:0.8;"/>
   </g>
   <g id="patch_16">
    <path d="M 414.72 307.584 
L 414.72 41.472 
" style="fill:none;stroke:#000000;stroke-linecap:square;stroke-linejoin:miter;stroke-width:0.8;"/>
   </g>
   <g id="patch_17">
    <path d="M 57.6 307.584 
L 414.72 307.584 
" style="fill:none;stroke:#000000;stroke-linecap:square;stroke-linejoin:miter;stroke-width:0.8;"/>
   </g>
   <g id="patch_18">
    <path d="M 57.6 41.472 
L 414.72 41.472 
" style="fill:none;stroke:#000000;stroke-linecap:square;stroke-linejoin:miter;stroke-width:0.8;"/>
   </g>
  </g>
 </g>
 <defs>
  <clipPath id="p06621a4a98">
   <rect height="266.112" width="357.12" x="57.6" y="41.472"/>
  </clipPath>
 </defs>
</svg>
