<?xml version="1.0" encoding="utf-8" standalone="no"?>
<!DOCTYPE svg PUBLIC "-//W3C//DTD SVG 1.1//EN"
  "http://www.w3.org/Graphics/SVG/1.1/DTD/svg11.dtd">
<svg height="345.6pt" version="1.1" viewBox="0 0 460.8 345.6" width="460.8pt" xmlns="http://www.w3.org/2000/svg" xmlns:xlink="http://www.w3.org/1999/xlink">
 <metadata>
  <rdf:RDF xmlns:cc="http://creativecommons.org/ns#" xmlns:dc="http://purl.org/dc/elements/1.1/" xmlns:rdf="http://www.w3.org/1999/02/22-rdf-syntax-ns#">
   <cc:Work>
    <dc:type rdf:resource="http://purl.org/dc/dcmitype/StillImage"/>
    <dc:date>2022-12-09T14:04:47.613007</dc:date>
    <dc:format>image/svg+xml</dc:format>
    <dc:creator>
     <cc:Agent>
      <dc:title>Matplotlib v3.4.3, https://matplotlib.org/</dc:title>
     </cc:Agent>
    </dc:creator>
   </cc:Work>
  </rdf:RDF>
 </metadata>
 <defs>
  <style type="text/css">*{stroke-linecap:butt;stroke-linejoin:round;}</style>
 </defs>
 <g id="figure_1">
  <g id="patch_1">
   <path d="M 0 345.6 
L 460.8 345.6 
L 460.8 0 
L 0 0 
z
" style="fill:#ffffff;"/>
  </g>
  <g id="axes_1">
   <g id="patch_2">
    <path d="M 57.6 307.584 
L 414.72 307.584 
L 414.72 41.472 
L 57.6 41.472 
z
" style="fill:#ffffff;"/>
   </g>
   <g id="patch_3">
    <path clip-path="url(#p827605c0c5)" d="M 79.92 148.385528 
L 94.8 148.385528 
L 94.8 214.581667 
L 79.92 214.581667 
z
" style="fill:#e15759;"/>
   </g>
   <g id="patch_4">
    <path clip-path="url(#p827605c0c5)" d="M 169.2 148.385528 
L 184.08 148.385528 
L 184.08 72.557309 
L 169.2 72.557309 
z
" style="fill:#e15759;"/>
   </g>
   <g id="patch_5">
    <path clip-path="url(#p827605c0c5)" d="M 258.48 148.385528 
L 273.36 148.385528 
L 273.36 244.039174 
L 258.48 244.039174 
z
" style="fill:#e15759;"/>
   </g>
   <g id="patch_6">
    <path clip-path="url(#p827605c0c5)" d="M 347.76 148.385528 
L 362.64 148.385528 
L 362.64 105.441261 
L 347.76 105.441261 
z
" style="fill:#e15759;"/>
   </g>
   <g id="patch_7">
    <path clip-path="url(#p827605c0c5)" d="M 94.8 148.385528 
L 109.68 148.385528 
L 109.68 131.037237 
L 94.8 131.037237 
z
" style="fill:#76b7b2;"/>
   </g>
   <g id="patch_8">
    <path clip-path="url(#p827605c0c5)" d="M 184.08 148.385528 
L 198.96 148.385528 
L 198.96 168.714637 
L 184.08 168.714637 
z
" style="fill:#76b7b2;"/>
   </g>
   <g id="patch_9">
    <path clip-path="url(#p827605c0c5)" d="M 273.36 148.385528 
L 288.24 148.385528 
L 288.24 108.090343 
L 273.36 108.090343 
z
" style="fill:#76b7b2;"/>
   </g>
   <g id="patch_10">
    <path clip-path="url(#p827605c0c5)" d="M 362.64 148.385528 
L 377.52 148.385528 
L 377.52 146.89855 
L 362.64 146.89855 
z
" style="fill:#76b7b2;"/>
   </g>
   <g id="patch_11">
    <path clip-path="url(#p827605c0c5)" d="M 109.68 148.385528 
L 124.56 148.385528 
L 124.56 136.96755 
L 109.68 136.96755 
z
" style="fill:#4e79a7;"/>
   </g>
   <g id="patch_12">
    <path clip-path="url(#p827605c0c5)" d="M 198.96 148.385528 
L 213.84 148.385528 
L 213.84 171.781877 
L 198.96 171.781877 
z
" style="fill:#4e79a7;"/>
   </g>
   <g id="patch_13">
    <path clip-path="url(#p827605c0c5)" d="M 288.24 148.385528 
L 303.12 148.385528 
L 303.12 123.571914 
L 288.24 123.571914 
z
" style="fill:#4e79a7;"/>
   </g>
   <g id="patch_14">
    <path clip-path="url(#p827605c0c5)" d="M 377.52 148.385528 
L 392.4 148.385528 
L 392.4 87.945405 
L 377.52 87.945405 
z
" style="fill:#4e79a7;"/>
   </g>
   <g id="matplotlib.axis_1">
    <g id="xtick_1">
     <g id="line2d_1">
      <defs>
       <path d="M 0 0 
L 0 3.5 
" id="m0b4fe13964" style="stroke:#000000;stroke-width:0.8;"/>
      </defs>
      <g>
       <use style="stroke:#000000;stroke-width:0.8;" x="102.24" xlink:href="#m0b4fe13964" y="307.584"/>
      </g>
     </g>
     <g id="text_1">
      <!-- 12 -->
      <g transform="translate(104.999375 327.309)rotate(-90)scale(0.1 -0.1)">
       <defs>
        <path d="M 794 531 
L 1825 531 
L 1825 4091 
L 703 3866 
L 703 4441 
L 1819 4666 
L 2450 4666 
L 2450 531 
L 3481 531 
L 3481 0 
L 794 0 
L 794 531 
z
" id="DejaVuSans-31" transform="scale(0.015625)"/>
        <path d="M 1228 531 
L 3431 531 
L 3431 0 
L 469 0 
L 469 531 
Q 828 903 1448 1529 
Q 2069 2156 2228 2338 
Q 2531 2678 2651 2914 
Q 2772 3150 2772 3378 
Q 2772 3750 2511 3984 
Q 2250 4219 1831 4219 
Q 1534 4219 1204 4116 
Q 875 4013 500 3803 
L 500 4441 
Q 881 4594 1212 4672 
Q 1544 4750 1819 4750 
Q 2544 4750 2975 4387 
Q 3406 4025 3406 3419 
Q 3406 3131 3298 2873 
Q 3191 2616 2906 2266 
Q 2828 2175 2409 1742 
Q 1991 1309 1228 531 
z
" id="DejaVuSans-32" transform="scale(0.015625)"/>
       </defs>
       <use xlink:href="#DejaVuSans-31"/>
       <use x="63.623047" xlink:href="#DejaVuSans-32"/>
      </g>
     </g>
    </g>
    <g id="xtick_2">
     <g id="line2d_2">
      <g>
       <use style="stroke:#000000;stroke-width:0.8;" x="191.52" xlink:href="#m0b4fe13964" y="307.584"/>
      </g>
     </g>
     <g id="text_2">
      <!-- 13 -->
      <g transform="translate(194.279375 327.309)rotate(-90)scale(0.1 -0.1)">
       <defs>
        <path d="M 2597 2516 
Q 3050 2419 3304 2112 
Q 3559 1806 3559 1356 
Q 3559 666 3084 287 
Q 2609 -91 1734 -91 
Q 1441 -91 1130 -33 
Q 819 25 488 141 
L 488 750 
Q 750 597 1062 519 
Q 1375 441 1716 441 
Q 2309 441 2620 675 
Q 2931 909 2931 1356 
Q 2931 1769 2642 2001 
Q 2353 2234 1838 2234 
L 1294 2234 
L 1294 2753 
L 1863 2753 
Q 2328 2753 2575 2939 
Q 2822 3125 2822 3475 
Q 2822 3834 2567 4026 
Q 2313 4219 1838 4219 
Q 1578 4219 1281 4162 
Q 984 4106 628 3988 
L 628 4550 
Q 988 4650 1302 4700 
Q 1616 4750 1894 4750 
Q 2613 4750 3031 4423 
Q 3450 4097 3450 3541 
Q 3450 3153 3228 2886 
Q 3006 2619 2597 2516 
z
" id="DejaVuSans-33" transform="scale(0.015625)"/>
       </defs>
       <use xlink:href="#DejaVuSans-31"/>
       <use x="63.623047" xlink:href="#DejaVuSans-33"/>
      </g>
     </g>
    </g>
    <g id="xtick_3">
     <g id="line2d_3">
      <g>
       <use style="stroke:#000000;stroke-width:0.8;" x="280.8" xlink:href="#m0b4fe13964" y="307.584"/>
      </g>
     </g>
     <g id="text_3">
      <!-- 14 -->
      <g transform="translate(283.559375 327.309)rotate(-90)scale(0.1 -0.1)">
       <defs>
        <path d="M 2419 4116 
L 825 1625 
L 2419 1625 
L 2419 4116 
z
M 2253 4666 
L 3047 4666 
L 3047 1625 
L 3713 1625 
L 3713 1100 
L 3047 1100 
L 3047 0 
L 2419 0 
L 2419 1100 
L 313 1100 
L 313 1709 
L 2253 4666 
z
" id="DejaVuSans-34" transform="scale(0.015625)"/>
       </defs>
       <use xlink:href="#DejaVuSans-31"/>
       <use x="63.623047" xlink:href="#DejaVuSans-34"/>
      </g>
     </g>
    </g>
    <g id="xtick_4">
     <g id="line2d_4">
      <g>
       <use style="stroke:#000000;stroke-width:0.8;" x="370.08" xlink:href="#m0b4fe13964" y="307.584"/>
      </g>
     </g>
     <g id="text_4">
      <!-- 15 -->
      <g transform="translate(372.839375 327.309)rotate(-90)scale(0.1 -0.1)">
       <defs>
        <path d="M 691 4666 
L 3169 4666 
L 3169 4134 
L 1269 4134 
L 1269 2991 
Q 1406 3038 1543 3061 
Q 1681 3084 1819 3084 
Q 2600 3084 3056 2656 
Q 3513 2228 3513 1497 
Q 3513 744 3044 326 
Q 2575 -91 1722 -91 
Q 1428 -91 1123 -41 
Q 819 9 494 109 
L 494 744 
Q 775 591 1075 516 
Q 1375 441 1709 441 
Q 2250 441 2565 725 
Q 2881 1009 2881 1497 
Q 2881 1984 2565 2268 
Q 2250 2553 1709 2553 
Q 1456 2553 1204 2497 
Q 953 2441 691 2322 
L 691 4666 
z
" id="DejaVuSans-35" transform="scale(0.015625)"/>
       </defs>
       <use xlink:href="#DejaVuSans-31"/>
       <use x="63.623047" xlink:href="#DejaVuSans-35"/>
      </g>
     </g>
    </g>
   </g>
   <g id="matplotlib.axis_2">
    <g id="ytick_1">
     <g id="line2d_5">
      <defs>
       <path d="M 0 0 
L -3.5 0 
" id="m2ceecc6cc8" style="stroke:#000000;stroke-width:0.8;"/>
      </defs>
      <g>
       <use style="stroke:#000000;stroke-width:0.8;" x="57.6" xlink:href="#m2ceecc6cc8" y="294.897401"/>
      </g>
     </g>
     <g id="text_5">
      <!-- −1.5 -->
      <g transform="translate(26.317187 298.69662)scale(0.1 -0.1)">
       <defs>
        <path d="M 678 2272 
L 4684 2272 
L 4684 1741 
L 678 1741 
L 678 2272 
z
" id="DejaVuSans-2212" transform="scale(0.015625)"/>
        <path d="M 684 794 
L 1344 794 
L 1344 0 
L 684 0 
L 684 794 
z
" id="DejaVuSans-2e" transform="scale(0.015625)"/>
       </defs>
       <use xlink:href="#DejaVuSans-2212"/>
       <use x="83.789062" xlink:href="#DejaVuSans-31"/>
       <use x="147.412109" xlink:href="#DejaVuSans-2e"/>
       <use x="179.199219" xlink:href="#DejaVuSans-35"/>
      </g>
     </g>
    </g>
    <g id="ytick_2">
     <g id="line2d_6">
      <g>
       <use style="stroke:#000000;stroke-width:0.8;" x="57.6" xlink:href="#m2ceecc6cc8" y="246.06011"/>
      </g>
     </g>
     <g id="text_6">
      <!-- −1.0 -->
      <g transform="translate(26.317187 249.859328)scale(0.1 -0.1)">
       <defs>
        <path d="M 2034 4250 
Q 1547 4250 1301 3770 
Q 1056 3291 1056 2328 
Q 1056 1369 1301 889 
Q 1547 409 2034 409 
Q 2525 409 2770 889 
Q 3016 1369 3016 2328 
Q 3016 3291 2770 3770 
Q 2525 4250 2034 4250 
z
M 2034 4750 
Q 2819 4750 3233 4129 
Q 3647 3509 3647 2328 
Q 3647 1150 3233 529 
Q 2819 -91 2034 -91 
Q 1250 -91 836 529 
Q 422 1150 422 2328 
Q 422 3509 836 4129 
Q 1250 4750 2034 4750 
z
" id="DejaVuSans-30" transform="scale(0.015625)"/>
       </defs>
       <use xlink:href="#DejaVuSans-2212"/>
       <use x="83.789062" xlink:href="#DejaVuSans-31"/>
       <use x="147.412109" xlink:href="#DejaVuSans-2e"/>
       <use x="179.199219" xlink:href="#DejaVuSans-30"/>
      </g>
     </g>
    </g>
    <g id="ytick_3">
     <g id="line2d_7">
      <g>
       <use style="stroke:#000000;stroke-width:0.8;" x="57.6" xlink:href="#m2ceecc6cc8" y="197.222819"/>
      </g>
     </g>
     <g id="text_7">
      <!-- −0.5 -->
      <g transform="translate(26.317187 201.022037)scale(0.1 -0.1)">
       <use xlink:href="#DejaVuSans-2212"/>
       <use x="83.789062" xlink:href="#DejaVuSans-30"/>
       <use x="147.412109" xlink:href="#DejaVuSans-2e"/>
       <use x="179.199219" xlink:href="#DejaVuSans-35"/>
      </g>
     </g>
    </g>
    <g id="ytick_4">
     <g id="line2d_8">
      <g>
       <use style="stroke:#000000;stroke-width:0.8;" x="57.6" xlink:href="#m2ceecc6cc8" y="148.385528"/>
      </g>
     </g>
     <g id="text_8">
      <!-- 0.0 -->
      <g transform="translate(34.696875 152.184746)scale(0.1 -0.1)">
       <use xlink:href="#DejaVuSans-30"/>
       <use x="63.623047" xlink:href="#DejaVuSans-2e"/>
       <use x="95.410156" xlink:href="#DejaVuSans-30"/>
      </g>
     </g>
    </g>
    <g id="ytick_5">
     <g id="line2d_9">
      <g>
       <use style="stroke:#000000;stroke-width:0.8;" x="57.6" xlink:href="#m2ceecc6cc8" y="99.548237"/>
      </g>
     </g>
     <g id="text_9">
      <!-- 0.5 -->
      <g transform="translate(34.696875 103.347455)scale(0.1 -0.1)">
       <use xlink:href="#DejaVuSans-30"/>
       <use x="63.623047" xlink:href="#DejaVuSans-2e"/>
       <use x="95.410156" xlink:href="#DejaVuSans-35"/>
      </g>
     </g>
    </g>
    <g id="ytick_6">
     <g id="line2d_10">
      <g>
       <use style="stroke:#000000;stroke-width:0.8;" x="57.6" xlink:href="#m2ceecc6cc8" y="50.710945"/>
      </g>
     </g>
     <g id="text_10">
      <!-- 1.0 -->
      <g transform="translate(34.696875 54.510164)scale(0.1 -0.1)">
       <use xlink:href="#DejaVuSans-31"/>
       <use x="63.623047" xlink:href="#DejaVuSans-2e"/>
       <use x="95.410156" xlink:href="#DejaVuSans-30"/>
      </g>
     </g>
    </g>
   </g>
   <g id="LineCollection_1">
    <path clip-path="url(#p827605c0c5)" d="M 87.36 224.765604 
L 87.36 204.397731 
" style="fill:none;stroke:#000000;stroke-width:1.5;"/>
    <path clip-path="url(#p827605c0c5)" d="M 176.64 83.514206 
L 176.64 61.600412 
" style="fill:none;stroke:#000000;stroke-width:1.5;"/>
    <path clip-path="url(#p827605c0c5)" d="M 265.92 295.488 
L 265.92 192.590348 
" style="fill:none;stroke:#000000;stroke-width:1.5;"/>
    <path clip-path="url(#p827605c0c5)" d="M 355.2 141.527319 
L 355.2 69.355202 
" style="fill:none;stroke:#000000;stroke-width:1.5;"/>
   </g>
   <g id="LineCollection_2">
    <path clip-path="url(#p827605c0c5)" d="M 102.24 139.494137 
L 102.24 122.580337 
" style="fill:none;stroke:#000000;stroke-width:1.5;"/>
    <path clip-path="url(#p827605c0c5)" d="M 191.52 177.586134 
L 191.52 159.84314 
" style="fill:none;stroke:#000000;stroke-width:1.5;"/>
    <path clip-path="url(#p827605c0c5)" d="M 280.8 162.612686 
L 280.8 53.568 
" style="fill:none;stroke:#000000;stroke-width:1.5;"/>
    <path clip-path="url(#p827605c0c5)" d="M 370.08 177.255093 
L 370.08 116.542007 
" style="fill:none;stroke:#000000;stroke-width:1.5;"/>
   </g>
   <g id="LineCollection_3">
    <path clip-path="url(#p827605c0c5)" d="M 117.12 145.524699 
L 117.12 128.4104 
" style="fill:none;stroke:#000000;stroke-width:1.5;"/>
    <path clip-path="url(#p827605c0c5)" d="M 206.4 181.098839 
L 206.4 162.464915 
" style="fill:none;stroke:#000000;stroke-width:1.5;"/>
    <path clip-path="url(#p827605c0c5)" d="M 295.68 166.690102 
L 295.68 80.453726 
" style="fill:none;stroke:#000000;stroke-width:1.5;"/>
    <path clip-path="url(#p827605c0c5)" d="M 384.96 113.15964 
L 384.96 62.73117 
" style="fill:none;stroke:#000000;stroke-width:1.5;"/>
   </g>
   <g id="line2d_11">
    <defs>
     <path d="M 4 0 
L -4 -0 
" id="m1423ed5e98" style="stroke:#000000;"/>
    </defs>
    <g clip-path="url(#p827605c0c5)">
     <use style="stroke:#000000;" x="87.36" xlink:href="#m1423ed5e98" y="224.765604"/>
     <use style="stroke:#000000;" x="176.64" xlink:href="#m1423ed5e98" y="83.514206"/>
     <use style="stroke:#000000;" x="265.92" xlink:href="#m1423ed5e98" y="295.488"/>
     <use style="stroke:#000000;" x="355.2" xlink:href="#m1423ed5e98" y="141.527319"/>
    </g>
   </g>
   <g id="line2d_12">
    <g clip-path="url(#p827605c0c5)">
     <use style="stroke:#000000;" x="87.36" xlink:href="#m1423ed5e98" y="204.397731"/>
     <use style="stroke:#000000;" x="176.64" xlink:href="#m1423ed5e98" y="61.600412"/>
     <use style="stroke:#000000;" x="265.92" xlink:href="#m1423ed5e98" y="192.590348"/>
     <use style="stroke:#000000;" x="355.2" xlink:href="#m1423ed5e98" y="69.355202"/>
    </g>
   </g>
   <g id="line2d_13">
    <g clip-path="url(#p827605c0c5)">
     <use style="stroke:#000000;" x="102.24" xlink:href="#m1423ed5e98" y="139.494137"/>
     <use style="stroke:#000000;" x="191.52" xlink:href="#m1423ed5e98" y="177.586134"/>
     <use style="stroke:#000000;" x="280.8" xlink:href="#m1423ed5e98" y="162.612686"/>
     <use style="stroke:#000000;" x="370.08" xlink:href="#m1423ed5e98" y="177.255093"/>
    </g>
   </g>
   <g id="line2d_14">
    <g clip-path="url(#p827605c0c5)">
     <use style="stroke:#000000;" x="102.24" xlink:href="#m1423ed5e98" y="122.580337"/>
     <use style="stroke:#000000;" x="191.52" xlink:href="#m1423ed5e98" y="159.84314"/>
     <use style="stroke:#000000;" x="280.8" xlink:href="#m1423ed5e98" y="53.568"/>
     <use style="stroke:#000000;" x="370.08" xlink:href="#m1423ed5e98" y="116.542007"/>
    </g>
   </g>
   <g id="line2d_15">
    <g clip-path="url(#p827605c0c5)">
     <use style="stroke:#000000;" x="117.12" xlink:href="#m1423ed5e98" y="145.524699"/>
     <use style="stroke:#000000;" x="206.4" xlink:href="#m1423ed5e98" y="181.098839"/>
     <use style="stroke:#000000;" x="295.68" xlink:href="#m1423ed5e98" y="166.690102"/>
     <use style="stroke:#000000;" x="384.96" xlink:href="#m1423ed5e98" y="113.15964"/>
    </g>
   </g>
   <g id="line2d_16">
    <g clip-path="url(#p827605c0c5)">
     <use style="stroke:#000000;" x="117.12" xlink:href="#m1423ed5e98" y="128.4104"/>
     <use style="stroke:#000000;" x="206.4" xlink:href="#m1423ed5e98" y="162.464915"/>
     <use style="stroke:#000000;" x="295.68" xlink:href="#m1423ed5e98" y="80.453726"/>
     <use style="stroke:#000000;" x="384.96" xlink:href="#m1423ed5e98" y="62.73117"/>
    </g>
   </g>
   <g id="line2d_17">
    <path clip-path="url(#p827605c0c5)" d="M 57.6 148.385528 
L 414.72 148.385528 
" style="fill:none;stroke:#000000;stroke-linecap:square;"/>
   </g>
   <g id="patch_15">
    <path d="M 57.6 307.584 
L 57.6 41.472 
" style="fill:none;stroke:#000000;stroke-linecap:square;stroke-linejoin:miter;stroke-width:0.8;"/>
   </g>
   <g id="patch_16">
    <path d="M 414.72 307.584 
L 414.72 41.472 
" style="fill:none;stroke:#000000;stroke-linecap:square;stroke-linejoin:miter;stroke-width:0.8;"/>
   </g>
   <g id="patch_17">
    <path d="M 57.6 307.584 
L 414.72 307.584 
" style="fill:none;stroke:#000000;stroke-linecap:square;stroke-linejoin:miter;stroke-width:0.8;"/>
   </g>
   <g id="patch_18">
    <path d="M 57.6 41.472 
L 414.72 41.472 
" style="fill:none;stroke:#000000;stroke-linecap:square;stroke-linejoin:miter;stroke-width:0.8;"/>
   </g>
  </g>
 </g>
 <defs>
  <clipPath id="p827605c0c5">
   <rect height="266.112" width="357.12" x="57.6" y="41.472"/>
  </clipPath>
 </defs>
</svg>
